{"glyphs":{"0":{"ha":875,"x_min":72,"x_max":802,"o":"m 656 607 q 644 654 656 632 q 613 693 633 677 q 566 720 593 710 q 510 729 540 729 l 364 729 q 308 720 334 729 q 261 693 281 710 q 230 654 241 677 q 218 607 218 632 l 218 364 q 230 317 218 339 q 261 278 241 295 q 308 252 281 262 q 364 243 334 243 l 510 243 q 568 252 541 243 q 614 278 594 262 q 645 316 633 294 q 656 364 656 338 l 656 607 m 802 243 q 717 71 802 141 q 510 0 633 0 l 364 0 q 252 18 304 0 q 158 71 200 35 q 94 150 115 106 q 72 243 72 193 l 72 729 q 94 822 72 780 q 158 900 115 864 q 252 954 200 936 q 364 972 304 972 l 510 972 q 715 900 629 972 q 802 729 802 828 l 802 243 z "},"1":{"ha":875,"x_min":292,"x_max":583,"o":"m 292 0 l 292 243 l 364 243 l 364 729 l 292 729 l 292 972 l 510 972 l 510 243 l 583 243 l 583 0 l 292 0 z "},"2":{"ha":875,"x_min":72,"x_max":802,"o":"m 72 0 l 72 304 q 160 475 72 404 q 254 529 203 511 q 364 547 304 547 l 473 547 q 516 554 496 547 q 551 574 536 562 q 574 602 566 586 q 583 637 583 618 q 574 673 583 656 q 551 702 566 690 q 516 722 536 715 q 473 729 496 729 l 72 729 l 72 972 l 510 972 q 715 900 629 972 q 802 729 802 828 l 802 668 q 715 497 802 569 q 622 444 673 462 q 510 425 570 425 l 328 425 q 285 418 305 425 q 251 398 265 410 q 227 370 236 386 q 218 335 218 353 l 218 243 l 802 243 l 802 0 l 72 0 z "},"3":{"ha":875,"x_min":72,"x_max":802,"o":"m 802 243 q 715 72 802 144 q 510 0 631 0 l 72 0 l 72 243 l 473 243 q 516 250 496 243 q 551 270 536 258 q 574 299 566 283 q 583 335 583 316 q 574 370 583 353 q 551 398 566 386 q 516 418 536 410 q 473 425 496 425 l 218 425 l 218 547 l 473 547 q 516 554 496 547 q 551 574 536 562 q 574 602 566 586 q 583 637 583 618 q 574 673 583 656 q 551 702 566 690 q 516 722 536 715 q 473 729 496 729 l 72 729 l 72 972 l 510 972 q 715 900 629 972 q 802 729 802 828 l 802 717 q 745 575 802 638 q 682 520 717 543 q 600 486 646 498 q 685 450 648 473 q 749 394 723 426 q 788 323 774 362 q 802 243 802 285 z "},"4":{"ha":875,"x_min":72,"x_max":802,"o":"m 656 0 l 656 170 l 72 170 l 72 729 l 218 729 l 218 412 l 656 412 l 656 972 l 802 972 l 802 0 l 656 0 z "},"5":{"ha":875,"x_min":72,"x_max":802,"o":"m 802 243 q 715 72 802 144 q 510 0 631 0 l 72 0 l 72 243 l 473 243 q 516 250 496 243 q 551 270 536 258 q 574 299 566 283 q 583 335 583 316 q 574 370 583 353 q 551 398 566 386 q 516 418 536 410 q 473 425 496 425 l 72 425 l 72 972 l 729 972 l 729 729 l 218 729 l 218 547 l 510 547 q 715 475 629 547 q 802 304 802 404 l 802 243 z "},"6":{"ha":875,"x_min":72,"x_max":802,"o":"m 656 335 q 647 370 656 353 q 624 398 639 386 q 589 418 609 410 q 547 425 570 425 l 328 425 q 285 418 305 425 q 251 398 265 410 q 227 370 236 386 q 218 335 218 353 q 227 299 218 316 q 251 270 236 283 q 285 250 265 258 q 328 243 305 243 l 547 243 q 589 250 570 243 q 624 270 609 258 q 647 299 639 283 q 656 335 656 316 m 802 243 q 717 71 802 141 q 510 0 633 0 l 364 0 q 160 72 244 0 q 72 243 72 144 l 72 729 q 94 823 72 781 q 158 901 115 866 q 364 972 241 972 l 729 972 l 729 729 l 364 729 q 307 720 334 729 q 260 694 280 710 q 230 655 241 677 q 218 607 218 633 l 218 450 q 228 488 218 470 q 253 518 237 505 q 290 539 269 532 q 335 547 311 547 l 510 547 q 715 475 629 547 q 802 304 802 404 l 802 243 z "},"7":{"ha":875,"x_min":72,"x_max":802,"o":"m 277 0 l 72 0 l 597 729 l 72 729 l 72 972 l 802 972 l 802 729 l 277 0 z "},"8":{"ha":875,"x_min":72,"x_max":802,"o":"m 656 335 q 647 370 656 353 q 624 398 639 386 q 589 418 609 410 q 547 425 570 425 l 328 425 q 285 418 305 425 q 251 398 265 410 q 227 370 236 386 q 218 335 218 353 q 227 299 218 316 q 251 270 236 283 q 285 250 265 258 q 328 243 305 243 l 547 243 q 589 250 570 243 q 624 270 609 258 q 647 299 639 283 q 656 335 656 316 m 656 637 q 647 673 656 656 q 624 702 639 690 q 589 722 609 715 q 547 729 570 729 l 328 729 q 285 722 305 729 q 251 702 265 715 q 227 673 236 690 q 218 637 218 656 q 227 602 218 618 q 251 574 236 586 q 285 554 265 562 q 328 547 305 547 l 547 547 q 589 554 570 547 q 624 574 609 562 q 647 602 639 586 q 656 637 656 618 m 802 243 q 717 71 802 141 q 510 0 633 0 l 364 0 q 158 71 242 0 q 94 149 115 106 q 72 243 72 192 l 72 279 q 211 486 72 414 q 107 573 142 522 q 72 693 72 625 l 72 729 q 94 823 72 781 q 158 901 115 866 q 364 972 241 972 l 510 972 q 717 901 633 972 q 802 729 802 831 l 802 693 q 664 486 802 557 q 802 279 802 415 l 802 243 z "},"9":{"ha":875,"x_min":72,"x_max":802,"o":"m 656 637 q 647 673 656 656 q 624 702 639 690 q 589 722 609 715 q 547 729 570 729 l 328 729 q 285 722 305 729 q 251 702 265 715 q 227 673 236 690 q 218 637 218 656 q 227 602 218 618 q 251 574 236 586 q 285 554 265 562 q 328 547 305 547 l 547 547 q 589 554 570 547 q 624 574 609 562 q 647 602 639 586 q 656 637 656 618 m 802 243 q 717 71 802 141 q 510 0 633 0 l 146 0 l 146 243 l 510 243 q 568 252 541 243 q 614 278 594 262 q 645 316 633 294 q 656 364 656 338 l 656 522 q 647 485 656 503 q 622 454 637 467 q 585 433 606 441 q 539 425 564 425 l 364 425 q 254 444 304 425 q 160 497 203 462 q 72 668 72 569 l 72 729 q 94 823 72 781 q 158 901 115 866 q 364 972 241 972 l 510 972 q 715 900 629 972 q 802 729 802 828 l 802 243 z "}," ":{"ha":656,"x_min":0,"x_max":0,"o":""},"!":{"ha":350,"x_min":72,"x_max":277,"o":"m 72 0 l 72 170 l 277 170 l 277 0 l 72 0 m 218 292 l 131 292 l 72 972 l 277 972 l 218 292 z "},"\"":{"ha":671,"x_min":72,"x_max":597,"o":"m 218 693 l 131 693 l 72 1034 l 277 1034 l 218 693 m 539 693 l 452 693 l 393 1034 l 597 1034 l 539 693 z "},"#":{"ha":904,"x_min":72,"x_max":831,"o":"m 374 729 l 357 583 l 532 583 l 549 729 l 374 729 m 639 486 l 625 340 l 509 340 l 522 486 l 347 486 l 334 340 l 216 340 l 231 486 l 72 486 l 72 583 l 240 583 l 257 729 l 72 729 l 72 827 l 267 827 l 282 972 l 399 972 l 383 827 l 558 827 l 574 972 l 690 972 l 675 827 l 831 827 l 831 729 l 665 729 l 648 583 l 831 583 l 831 486 l 639 486 z "},"$":{"ha":875,"x_min":72,"x_max":802,"o":"m 802 364 q 715 193 802 264 q 622 139 673 157 q 510 121 570 121 l 510 0 l 364 0 l 364 121 l 72 121 l 72 364 l 510 364 q 537 369 524 364 q 561 383 551 374 q 577 402 571 391 q 583 425 583 413 q 577 449 583 437 q 561 468 571 460 q 537 481 551 477 q 510 486 524 486 l 364 486 q 160 558 244 486 q 72 729 72 630 q 160 900 72 828 q 254 954 203 936 q 364 972 304 972 l 364 1093 l 510 1093 l 510 972 l 802 972 l 802 729 l 364 729 q 336 724 349 729 q 313 711 323 720 q 297 691 303 703 q 292 668 292 680 q 297 645 292 656 q 313 626 303 634 q 336 612 323 617 q 364 607 349 607 l 510 607 q 715 536 629 607 q 802 364 802 465 z "},"%":{"ha":1560,"x_min":72,"x_max":1487,"o":"m 510 699 q 502 734 510 718 q 478 763 493 751 q 444 783 463 776 q 401 790 424 790 l 292 790 q 249 783 269 790 q 214 763 229 776 q 191 734 199 751 q 182 699 182 718 l 182 607 q 191 572 182 589 q 214 544 199 556 q 249 524 229 531 q 292 517 269 517 l 401 517 q 445 524 425 517 q 479 543 465 530 q 502 571 494 555 q 510 607 510 587 l 510 699 m 1378 364 q 1369 399 1378 382 q 1345 428 1360 416 q 1311 448 1331 441 q 1268 456 1291 456 l 1160 456 q 1117 448 1137 456 q 1082 428 1097 441 q 1059 399 1067 416 q 1050 364 1050 382 l 1050 273 q 1059 238 1050 255 q 1082 209 1067 222 q 1117 189 1097 197 q 1160 182 1137 182 l 1268 182 q 1312 189 1292 182 q 1347 208 1333 196 q 1370 237 1362 220 q 1378 273 1378 254 l 1378 364 m 619 517 q 603 446 619 478 q 555 386 587 414 q 401 335 492 335 l 292 335 q 208 348 247 335 q 138 387 169 361 q 72 517 72 441 l 72 790 q 138 918 72 866 q 208 959 169 945 q 292 972 247 972 l 401 972 q 555 918 491 972 q 619 790 619 866 l 619 517 m 707 0 l 707 972 l 852 972 l 852 0 l 707 0 m 1487 182 q 1423 53 1487 105 q 1268 0 1360 0 l 1160 0 q 1006 53 1069 0 q 940 182 940 107 l 940 456 q 1006 585 940 530 q 1160 637 1069 637 l 1268 637 q 1423 585 1358 637 q 1487 456 1487 530 l 1487 182 z "},"&":{"ha":875,"x_min":72,"x_max":802,"o":"m 568 425 l 401 425 q 359 418 379 425 q 324 398 339 410 q 300 370 309 386 q 292 335 292 353 q 300 299 292 316 q 324 270 309 283 q 359 250 339 258 q 401 243 379 243 l 568 243 l 568 425 m 364 0 q 160 72 244 0 q 72 243 72 144 q 86 323 72 285 q 126 394 100 362 q 190 450 152 426 q 275 486 227 473 q 190 523 227 499 q 126 578 152 547 q 86 649 100 610 q 72 729 72 687 q 160 900 72 828 q 254 954 203 936 q 364 972 304 972 l 802 972 l 802 729 l 401 729 q 359 722 379 729 q 324 702 339 715 q 300 673 309 690 q 292 637 292 656 q 300 602 292 618 q 324 574 309 586 q 359 554 339 562 q 401 547 379 547 l 802 547 l 802 425 l 714 425 l 714 243 l 802 243 l 802 0 l 364 0 z "},"'":{"ha":350,"x_min":72,"x_max":277,"o":"m 218 693 l 131 693 l 72 1034 l 277 1034 l 218 693 z "},"(":{"ha":510,"x_min":72,"x_max":364,"o":"m 364 -122 q 254 -104 304 -122 q 160 -50 203 -85 q 72 121 72 22 l 72 850 q 160 1022 72 951 q 364 1093 244 1093 l 364 850 q 308 840 334 850 q 261 814 281 831 q 230 776 241 798 q 218 729 218 754 l 218 243 q 230 196 218 218 q 261 157 241 174 q 308 131 281 140 q 364 121 334 121 l 364 -122 z "},")":{"ha":510,"x_min":146,"x_max":437,"o":"m 437 121 q 351 -50 437 22 q 258 -104 309 -85 q 146 -122 207 -122 l 146 121 q 203 131 176 121 q 249 157 229 140 q 280 196 269 174 q 292 243 292 218 l 292 729 q 280 776 292 754 q 249 814 269 798 q 203 840 229 831 q 146 850 176 850 l 146 1093 q 351 1022 266 1093 q 437 850 437 951 l 437 121 z "},"*":{"ha":708,"x_min":72,"x_max":636,"o":"m 578 566 l 412 646 l 412 486 l 296 486 l 296 646 l 131 566 l 72 650 l 237 729 l 72 808 l 131 893 l 296 812 l 296 972 l 412 972 l 412 812 l 578 893 l 636 808 l 471 729 l 636 650 l 578 566 z "},"+":{"ha":729,"x_min":72,"x_max":656,"o":"m 422 376 l 422 182 l 306 182 l 306 376 l 72 376 l 72 473 l 306 473 l 306 668 l 422 668 l 422 473 l 656 473 l 656 376 l 422 376 z "},",":{"ha":350,"x_min":72,"x_max":277,"o":"m 218 -171 l 131 -171 l 72 170 l 277 170 l 218 -171 z "},"-":{"ha":729,"x_min":72,"x_max":656,"o":"m 72 376 l 72 473 l 656 473 l 656 376 l 72 376 z "},"­":{"ha":729,"x_min":72,"x_max":656,"o":"m 72 376 l 72 473 l 656 473 l 656 376 l 72 376 z "},".":{"ha":350,"x_min":72,"x_max":277,"o":"m 72 0 l 72 170 l 277 170 l 277 0 l 72 0 z "},"/":{"ha":708,"x_min":36,"x_max":672,"o":"m 174 -106 l 36 -64 l 534 1078 l 672 1036 l 174 -106 z "},":":{"ha":350,"x_min":72,"x_max":277,"o":"m 72 0 l 72 170 l 277 170 l 277 0 l 72 0 m 72 486 l 72 656 l 277 656 l 277 486 l 72 486 z "},";":{"ha":350,"x_min":72,"x_max":277,"o":"m 218 -171 l 131 -171 l 72 170 l 277 170 l 218 -171 m 72 486 l 72 656 l 277 656 l 277 486 l 72 486 z "},";":{"ha":350,"x_min":72,"x_max":277,"o":"m 218 -171 l 131 -171 l 72 170 l 277 170 l 218 -171 m 72 486 l 72 656 l 277 656 l 277 486 l 72 486 z "},"<":{"ha":699,"x_min":72,"x_max":627,"o":"m 561 111 l 72 376 l 72 473 l 561 739 l 627 657 l 197 425 l 627 193 l 561 111 z "},"=":{"ha":729,"x_min":72,"x_max":656,"o":"m 72 267 l 72 364 l 656 364 l 656 267 l 72 267 m 72 486 l 72 583 l 656 583 l 656 486 l 72 486 z "},">":{"ha":699,"x_min":72,"x_max":627,"o":"m 138 111 l 72 193 l 501 425 l 72 657 l 138 739 l 627 473 l 627 376 l 138 111 z "},"?":{"ha":787,"x_min":72,"x_max":714,"o":"m 146 0 l 146 170 l 350 170 l 350 0 l 146 0 m 714 729 q 628 558 714 630 q 422 486 543 486 l 307 486 l 292 292 l 204 292 l 176 607 l 422 607 q 450 612 437 607 q 473 626 463 617 q 490 645 484 634 q 496 668 496 656 q 490 691 496 680 q 473 711 484 703 q 450 724 463 720 q 422 729 437 729 l 72 729 l 72 972 l 422 972 q 628 900 541 972 q 714 729 714 828 z "},"@":{"ha":1312,"x_min":72,"x_max":1239,"o":"m 825 374 q 818 407 825 392 q 798 433 811 422 q 766 450 785 444 q 726 456 748 456 l 616 456 q 573 448 594 456 q 536 428 553 441 q 510 399 520 416 q 497 364 499 382 q 490 295 492 320 q 489 267 489 271 q 496 233 489 248 q 517 206 504 218 q 548 188 530 195 q 587 182 566 182 l 697 182 q 740 189 720 182 q 777 209 761 197 q 804 238 793 222 q 817 273 814 255 q 823 343 821 319 q 825 374 825 368 m 1239 243 q 1154 71 1239 141 q 947 0 1070 0 l 787 0 l 793 61 q 635 -1 785 -1 l 600 -1 q 583 0 591 0 q 568 0 574 0 q 491 12 526 0 q 425 47 456 24 q 367 167 367 97 q 367 172 367 168 q 370 182 368 176 l 399 456 q 422 525 402 493 q 475 585 441 557 q 636 637 547 637 l 745 637 q 889 590 831 637 q 947 472 947 544 q 947 466 947 471 q 946 456 947 462 l 905 85 l 991 85 q 1049 94 1022 85 q 1095 120 1076 104 q 1126 159 1115 136 q 1137 207 1137 181 l 1137 765 q 1126 812 1137 790 q 1095 851 1114 835 q 1048 878 1075 868 q 991 888 1022 888 l 321 888 q 264 878 290 888 q 218 851 237 868 q 186 812 198 835 q 175 765 175 790 l 175 -36 q 186 -83 175 -61 q 218 -122 198 -106 q 264 -149 237 -139 q 321 -158 290 -158 l 1093 -158 l 1093 -243 l 364 -243 q 252 -225 304 -243 q 158 -171 200 -208 q 94 -93 115 -135 q 72 0 72 -50 l 72 729 q 94 822 72 780 q 158 900 115 864 q 252 954 200 936 q 364 972 304 972 l 947 972 q 1059 954 1008 972 q 1153 900 1110 936 q 1239 729 1239 828 l 1239 243 z "},"A":{"ha":875,"x_min":72,"x_max":802,"o":"m 656 607 q 645 655 656 633 q 614 694 633 677 q 568 720 594 710 q 510 729 541 729 l 364 729 q 308 720 334 729 q 261 693 281 710 q 230 654 241 677 q 218 607 218 632 l 218 364 l 656 364 l 656 607 m 656 0 l 656 243 l 218 243 l 218 0 l 72 0 l 72 729 q 160 900 72 828 q 254 954 203 936 q 364 972 304 972 l 510 972 q 717 901 633 972 q 802 729 802 831 l 802 0 l 656 0 z "},"B":{"ha":875,"x_min":72,"x_max":802,"o":"m 583 335 q 574 370 583 353 q 551 398 566 386 q 516 418 536 410 q 473 425 496 425 l 218 425 l 218 243 l 473 243 q 516 250 496 243 q 551 270 536 258 q 574 299 566 283 q 583 335 583 316 m 583 637 q 574 673 583 656 q 551 702 566 690 q 516 722 536 715 q 473 729 496 729 l 218 729 l 218 547 l 473 547 q 516 554 496 547 q 551 574 536 562 q 574 602 566 586 q 583 637 583 618 m 802 243 q 715 72 802 144 q 510 0 631 0 l 72 0 l 72 972 l 510 972 q 715 900 629 972 q 802 729 802 828 l 802 717 q 745 575 802 638 q 682 520 717 543 q 600 486 646 498 q 685 450 648 473 q 749 394 723 426 q 788 323 774 362 q 802 243 802 285 z "},"C":{"ha":875,"x_min":72,"x_max":802,"o":"m 364 0 q 160 72 244 0 q 72 243 72 144 l 72 729 q 160 900 72 828 q 254 954 203 936 q 364 972 304 972 l 802 972 l 802 729 l 364 729 q 308 720 334 729 q 261 693 281 710 q 230 654 241 677 q 218 607 218 632 l 218 364 q 230 317 218 339 q 261 278 241 295 q 308 252 281 262 q 364 243 334 243 l 802 243 l 802 0 l 364 0 z "},"D":{"ha":875,"x_min":72,"x_max":802,"o":"m 656 607 q 644 654 656 632 q 613 693 633 677 q 566 720 593 710 q 510 729 540 729 l 218 729 l 218 243 l 510 243 q 568 252 541 243 q 614 278 594 262 q 645 316 633 294 q 656 364 656 338 l 656 607 m 802 243 q 717 71 802 141 q 510 0 633 0 l 72 0 l 72 972 l 510 972 q 715 900 629 972 q 802 729 802 828 l 802 243 z "},"E":{"ha":729,"x_min":72,"x_max":656,"o":"m 364 0 q 158 71 242 0 q 94 149 115 106 q 72 243 72 192 l 72 972 l 656 972 l 656 729 l 218 729 l 218 547 l 510 547 l 510 425 l 218 425 l 218 364 q 230 316 218 338 q 260 278 241 294 q 307 252 280 262 q 364 243 334 243 l 656 243 l 656 0 l 364 0 z "},"F":{"ha":693,"x_min":72,"x_max":656,"o":"m 364 729 q 307 720 334 729 q 260 694 280 710 q 230 655 241 677 q 218 607 218 633 l 218 547 l 510 547 l 510 425 l 218 425 l 218 0 l 72 0 l 72 729 q 94 823 72 781 q 158 901 115 866 q 364 972 241 972 l 656 972 l 656 729 l 364 729 z "},"G":{"ha":875,"x_min":72,"x_max":802,"o":"m 364 729 q 308 720 334 729 q 261 693 281 710 q 230 654 241 677 q 218 607 218 632 l 218 364 q 230 317 218 339 q 261 278 241 295 q 308 252 281 262 q 364 243 334 243 l 642 243 l 642 425 l 437 425 l 437 547 l 787 547 l 787 0 l 364 0 q 160 72 244 0 q 72 243 72 144 l 72 729 q 160 900 72 828 q 254 954 203 936 q 364 972 304 972 l 802 972 l 802 729 l 364 729 z "},"H":{"ha":875,"x_min":72,"x_max":802,"o":"m 656 0 l 656 364 l 218 364 l 218 0 l 72 0 l 72 972 l 218 972 l 218 607 l 656 607 l 656 972 l 802 972 l 802 0 l 656 0 z "},"I":{"ha":437,"x_min":72,"x_max":364,"o":"m 72 0 l 72 243 l 146 243 l 146 729 l 72 729 l 72 972 l 364 972 l 364 729 l 292 729 l 292 243 l 364 243 l 364 0 l 72 0 z "},"J":{"ha":583,"x_min":72,"x_max":510,"o":"m 510 243 q 425 71 510 141 q 218 0 341 0 l 72 0 l 72 243 l 218 243 q 276 252 250 243 q 322 278 302 262 q 353 316 342 294 q 364 364 364 338 l 364 729 l 72 729 l 72 972 l 510 972 l 510 243 z "},"K":{"ha":875,"x_min":72,"x_max":802,"o":"m 656 0 l 656 243 q 645 291 656 269 q 614 330 633 313 q 568 355 594 346 q 510 364 541 364 l 218 364 l 218 0 l 72 0 l 72 972 l 218 972 l 218 607 l 510 607 q 568 616 541 607 q 614 642 594 626 q 645 681 633 659 q 656 729 656 703 l 656 972 l 802 972 l 802 704 q 791 636 802 669 q 759 575 780 604 q 708 524 739 547 q 640 486 678 501 q 708 448 678 471 q 759 397 739 425 q 791 335 780 368 q 802 267 802 302 l 802 0 l 656 0 z "},"L":{"ha":729,"x_min":72,"x_max":656,"o":"m 364 0 q 158 71 242 0 q 94 149 115 106 q 72 243 72 192 l 72 972 l 218 972 l 218 364 q 230 316 218 338 q 260 278 241 294 q 307 252 280 262 q 364 243 334 243 l 656 243 l 656 0 l 364 0 z "},"M":{"ha":1458,"x_min":72,"x_max":1385,"o":"m 1239 0 l 1239 607 q 1227 654 1239 632 q 1196 693 1216 677 q 1150 720 1177 710 q 1093 729 1124 729 l 947 729 q 890 720 917 729 q 844 694 863 710 q 813 655 824 677 q 802 607 802 633 l 802 0 l 656 0 l 656 607 q 645 655 656 633 q 614 694 633 677 q 568 720 594 710 q 510 729 541 729 l 364 729 q 308 720 334 729 q 261 693 281 710 q 230 654 241 677 q 218 607 218 632 l 218 0 l 72 0 l 72 729 q 160 900 72 828 q 254 954 203 936 q 364 972 304 972 l 452 972 q 543 961 499 972 q 623 928 587 949 q 687 876 660 906 q 729 807 715 845 q 771 876 744 845 q 834 928 798 906 q 915 961 871 949 q 1006 972 958 972 l 1093 972 q 1205 954 1154 972 q 1299 900 1256 936 q 1385 729 1385 828 l 1385 0 l 1239 0 z "},"N":{"ha":875,"x_min":72,"x_max":802,"o":"m 656 0 l 656 607 q 645 655 656 633 q 614 694 633 677 q 568 720 594 710 q 510 729 541 729 l 364 729 q 308 720 334 729 q 261 693 281 710 q 230 654 241 677 q 218 607 218 632 l 218 0 l 72 0 l 72 729 q 94 822 72 780 q 158 900 115 864 q 252 954 200 936 q 364 972 304 972 l 510 972 q 717 901 633 972 q 802 729 802 831 l 802 0 l 656 0 z "},"O":{"ha":875,"x_min":72,"x_max":802,"o":"m 656 607 q 644 654 656 632 q 613 693 633 677 q 566 720 593 710 q 510 729 540 729 l 364 729 q 308 720 334 729 q 261 693 281 710 q 230 654 241 677 q 218 607 218 632 l 218 364 q 230 317 218 339 q 261 278 241 295 q 308 252 281 262 q 364 243 334 243 l 510 243 q 568 252 541 243 q 614 278 594 262 q 645 316 633 294 q 656 364 656 338 l 656 607 m 802 243 q 717 71 802 141 q 510 0 633 0 l 364 0 q 252 18 304 0 q 158 71 200 35 q 94 150 115 106 q 72 243 72 193 l 72 729 q 94 822 72 780 q 158 900 115 864 q 252 954 200 936 q 364 972 304 972 l 510 972 q 715 900 629 972 q 802 729 802 828 l 802 243 z "},"P":{"ha":875,"x_min":72,"x_max":802,"o":"m 583 637 q 574 673 583 656 q 551 702 566 690 q 516 722 536 715 q 473 729 496 729 l 218 729 l 218 547 l 473 547 q 516 554 496 547 q 551 574 536 562 q 574 602 566 586 q 583 637 583 618 m 802 668 q 715 497 802 569 q 622 444 673 462 q 510 425 570 425 l 218 425 l 218 0 l 72 0 l 72 972 l 510 972 q 715 900 629 972 q 802 729 802 828 l 802 668 z "},"Q":{"ha":875,"x_min":72,"x_max":802,"o":"m 656 607 q 644 654 656 632 q 613 693 633 677 q 566 720 593 710 q 510 729 540 729 l 364 729 q 308 720 334 729 q 261 693 281 710 q 230 654 241 677 q 218 607 218 632 l 218 364 q 230 317 218 339 q 261 278 241 295 q 308 252 281 262 q 364 243 334 243 l 510 243 q 568 252 541 243 q 614 278 594 262 q 645 316 633 294 q 656 364 656 338 l 656 607 m 656 -366 q 543 -348 595 -366 q 450 -294 492 -330 q 364 -122 364 -224 l 364 0 q 160 71 245 0 q 72 243 72 142 l 72 729 q 160 900 72 828 q 254 954 203 936 q 364 972 304 972 l 510 972 q 715 900 629 972 q 802 729 802 828 l 802 243 q 717 71 802 141 q 510 0 633 0 q 521 -48 510 -26 q 552 -87 532 -71 q 598 -113 572 -103 q 656 -122 625 -122 l 802 -122 l 802 -366 l 656 -366 z "},"R":{"ha":875,"x_min":72,"x_max":802,"o":"m 583 637 q 574 673 583 656 q 551 702 566 690 q 516 722 536 715 q 473 729 496 729 l 218 729 l 218 547 l 473 547 q 516 554 496 547 q 551 574 536 562 q 574 602 566 586 q 583 637 583 618 m 656 0 l 656 256 q 607 374 656 325 q 548 412 582 399 q 473 425 514 425 l 218 425 l 218 0 l 72 0 l 72 972 l 510 972 q 715 900 629 972 q 802 729 802 828 q 788 649 802 687 q 749 578 774 610 q 685 523 723 547 q 600 486 648 499 q 686 451 648 473 q 749 400 724 429 q 788 334 775 370 q 802 256 802 297 l 802 0 l 656 0 z "},"S":{"ha":875,"x_min":72,"x_max":802,"o":"m 802 243 q 715 72 802 144 q 510 0 631 0 l 72 0 l 72 243 l 473 243 q 516 250 496 243 q 551 270 536 258 q 574 299 566 283 q 583 335 583 316 q 574 370 583 353 q 551 398 566 386 q 516 418 536 410 q 473 425 496 425 l 364 425 q 254 444 304 425 q 160 497 203 462 q 72 668 72 569 l 72 729 q 160 900 72 828 q 254 954 203 936 q 364 972 304 972 l 802 972 l 802 729 l 401 729 q 359 722 379 729 q 324 702 339 715 q 300 673 309 690 q 292 637 292 656 q 300 602 292 618 q 324 574 309 586 q 359 554 339 562 q 401 547 379 547 l 510 547 q 715 475 629 547 q 802 304 802 404 l 802 243 z "},"T":{"ha":802,"x_min":36,"x_max":765,"o":"m 473 729 l 473 0 l 328 0 l 328 729 l 36 729 l 36 972 l 765 972 l 765 729 l 473 729 z "},"U":{"ha":875,"x_min":72,"x_max":802,"o":"m 802 243 q 717 71 802 141 q 510 0 633 0 l 364 0 q 252 18 304 0 q 158 71 200 35 q 94 150 115 106 q 72 243 72 193 l 72 972 l 218 972 l 218 364 q 230 317 218 339 q 261 278 241 295 q 308 252 281 262 q 364 243 334 243 l 510 243 q 568 252 541 243 q 614 278 594 262 q 645 316 633 294 q 656 364 656 338 l 656 972 l 802 972 l 802 243 z "},"V":{"ha":875,"x_min":72,"x_max":802,"o":"m 802 243 q 717 71 802 141 q 510 0 633 0 l 72 0 l 72 972 l 218 972 l 218 243 l 510 243 q 568 252 541 243 q 614 278 594 262 q 645 316 633 294 q 656 364 656 338 l 656 972 l 802 972 l 802 243 z "},"W":{"ha":1458,"x_min":72,"x_max":1385,"o":"m 1385 243 q 1299 72 1385 144 q 1093 0 1214 0 l 1006 0 q 915 12 958 0 q 834 44 871 23 q 771 97 798 66 q 729 165 744 127 q 687 97 715 127 q 623 44 660 66 q 543 12 587 23 q 452 0 499 0 l 364 0 q 160 72 244 0 q 72 243 72 144 l 72 972 l 218 972 l 218 364 q 230 317 218 339 q 261 278 241 295 q 308 252 281 262 q 364 243 334 243 l 510 243 q 568 252 541 243 q 614 278 594 262 q 645 316 633 294 q 656 364 656 338 l 656 972 l 802 972 l 802 364 q 813 316 802 338 q 844 278 824 294 q 890 252 863 262 q 947 243 917 243 l 1093 243 q 1150 252 1124 243 q 1196 278 1177 262 q 1227 317 1216 295 q 1239 364 1239 339 l 1239 972 l 1385 972 l 1385 243 z "},"X":{"ha":875,"x_min":72,"x_max":802,"o":"m 714 0 q 625 12 667 0 q 545 46 583 23 q 437 168 467 94 q 330 46 408 94 q 250 12 292 23 q 160 0 208 0 l 72 0 l 72 243 l 218 243 q 275 252 248 243 q 321 278 301 262 q 353 317 341 295 q 364 364 364 339 l 364 607 q 353 654 364 632 q 321 693 341 677 q 275 720 301 710 q 218 729 248 729 l 72 729 l 72 972 l 160 972 q 330 925 254 972 q 437 804 408 879 q 545 925 467 879 q 714 972 621 972 l 802 972 l 802 729 l 656 729 q 600 720 626 729 q 553 693 573 710 q 522 654 533 677 q 510 607 510 632 l 510 364 q 522 317 510 339 q 553 278 533 295 q 600 252 573 262 q 656 243 626 243 l 802 243 l 802 0 l 714 0 z "},"Y":{"ha":875,"x_min":72,"x_max":802,"o":"m 802 534 q 717 363 802 433 q 510 292 633 292 l 510 0 l 364 0 l 364 292 q 160 363 244 292 q 72 534 72 433 l 72 972 l 218 972 l 218 656 q 230 609 218 631 q 261 570 241 587 q 308 544 281 553 q 364 534 334 534 l 510 534 q 568 544 541 534 q 614 570 594 553 q 645 608 633 586 q 656 656 656 630 l 656 972 l 802 972 l 802 534 z "},"Z":{"ha":875,"x_min":72,"x_max":802,"o":"m 72 0 l 72 243 l 583 729 l 72 729 l 72 972 l 802 972 l 802 729 l 292 243 l 802 243 l 802 0 l 72 0 z "},"[":{"ha":510,"x_min":72,"x_max":364,"o":"m 72 -122 l 72 1093 l 364 1093 l 364 850 l 218 850 l 218 121 l 364 121 l 364 -122 l 72 -122 z "},"\\":{"ha":708,"x_min":36,"x_max":672,"o":"m 534 -106 l 36 1036 l 174 1078 l 672 -64 l 534 -106 z "},"]":{"ha":510,"x_min":146,"x_max":437,"o":"m 146 -122 l 146 121 l 292 121 l 292 850 l 146 850 l 146 1093 l 437 1093 l 437 -122 l 146 -122 z "},"^":{"ha":737,"x_min":72,"x_max":665,"o":"m 558 489 l 370 842 l 179 489 l 72 529 l 311 972 l 428 972 l 665 529 l 558 489 z "},"_":{"ha":656,"x_min":0,"x_max":656,"o":"m 0 0 l 0 121 l 656 121 l 656 0 l 0 0 z "},"`":{"ha":350,"x_min":72,"x_max":277,"o":"m 189 802 l 72 972 l 189 972 l 277 802 l 189 802 z "},"a":{"ha":875,"x_min":72,"x_max":802,"o":"m 656 486 q 645 534 656 512 q 614 572 633 556 q 568 598 594 589 q 510 607 541 607 l 364 607 q 308 597 334 607 q 261 572 281 588 q 230 533 241 555 q 218 486 218 511 l 218 364 q 230 317 218 339 q 261 278 241 295 q 308 252 281 262 q 364 243 334 243 l 510 243 q 566 252 540 243 q 613 278 593 262 q 644 317 633 295 q 656 364 656 339 l 656 486 m 656 0 l 656 82 q 642 47 656 62 q 604 20 628 31 q 559 4 583 9 q 510 0 536 0 l 364 0 q 160 72 244 0 q 72 243 72 144 l 72 607 q 160 779 72 707 q 364 850 243 850 l 510 850 q 623 833 572 850 q 717 781 675 817 q 802 607 802 710 l 802 0 l 656 0 z "},"b":{"ha":875,"x_min":72,"x_max":802,"o":"m 656 486 q 644 533 656 511 q 613 572 633 555 q 566 597 593 588 q 510 607 540 607 l 364 607 q 308 597 334 607 q 261 572 281 588 q 230 533 241 555 q 218 486 218 511 l 218 364 q 230 316 218 338 q 260 278 241 294 q 307 252 280 262 q 364 243 334 243 l 510 243 q 566 252 540 243 q 613 278 593 262 q 644 317 633 295 q 656 364 656 339 l 656 486 m 802 243 q 715 72 802 144 q 510 0 631 0 l 364 0 q 158 71 242 0 q 94 149 115 106 q 72 243 72 192 l 72 1034 l 218 1034 l 218 770 q 271 831 220 807 q 315 845 292 841 q 364 850 338 850 l 510 850 q 715 779 631 850 q 802 607 802 707 l 802 243 z "},"c":{"ha":875,"x_min":72,"x_max":802,"o":"m 364 0 q 160 72 244 0 q 72 243 72 144 l 72 607 q 160 779 72 707 q 364 850 243 850 l 802 850 l 802 607 l 364 607 q 308 597 334 607 q 261 572 281 588 q 230 533 241 555 q 218 486 218 511 l 218 364 q 230 317 218 339 q 261 278 241 295 q 308 252 281 262 q 364 243 334 243 l 802 243 l 802 0 l 364 0 z "},"d":{"ha":875,"x_min":72,"x_max":802,"o":"m 656 486 q 644 533 656 511 q 613 572 633 555 q 566 597 593 588 q 510 607 540 607 l 364 607 q 308 597 334 607 q 261 572 281 588 q 230 533 241 555 q 218 486 218 511 l 218 364 q 230 317 218 339 q 261 278 241 295 q 308 252 281 262 q 364 243 334 243 l 510 243 q 568 252 541 243 q 614 278 594 262 q 645 316 633 294 q 656 364 656 338 l 656 486 m 802 243 q 717 71 802 141 q 510 0 633 0 l 364 0 q 160 72 244 0 q 72 243 72 144 l 72 607 q 160 779 72 707 q 364 850 243 850 l 510 850 q 559 845 536 850 q 604 831 583 841 q 642 804 628 819 q 656 770 656 788 l 656 1034 l 802 1034 l 802 243 z "},"e":{"ha":875,"x_min":72,"x_max":802,"o":"m 364 0 q 160 72 244 0 q 72 243 72 144 l 72 607 q 160 779 72 707 q 364 850 243 850 l 802 850 l 802 607 l 364 607 q 308 597 334 607 q 261 572 281 588 q 230 533 241 555 q 218 486 218 511 l 656 486 l 656 364 l 218 364 q 230 317 218 339 q 261 278 241 295 q 308 252 281 262 q 364 243 334 243 l 802 243 l 802 0 l 364 0 z "},"f":{"ha":693,"x_min":72,"x_max":656,"o":"m 364 790 q 307 781 334 790 q 260 755 280 771 q 230 716 241 739 q 218 668 218 694 l 218 547 l 510 547 l 510 425 l 218 425 l 218 0 l 72 0 l 72 790 q 94 884 72 842 q 158 962 115 927 q 364 1034 241 1034 l 656 1034 l 656 790 l 364 790 z "},"g":{"ha":875,"x_min":72,"x_max":802,"o":"m 656 486 q 644 533 656 511 q 613 572 633 555 q 566 597 593 588 q 510 607 540 607 l 364 607 q 308 597 334 607 q 261 572 281 588 q 230 533 241 555 q 218 486 218 511 l 218 364 q 230 317 218 339 q 261 278 241 295 q 308 252 281 262 q 364 243 334 243 l 510 243 q 568 252 541 243 q 614 278 594 262 q 645 316 633 294 q 656 364 656 338 l 656 486 m 802 -122 q 717 -294 802 -224 q 510 -366 633 -366 l 364 -366 l 364 -122 l 510 -122 q 568 -113 541 -122 q 614 -87 594 -103 q 645 -48 633 -71 q 656 0 656 -26 l 656 82 q 642 47 656 62 q 604 20 628 31 q 559 4 583 9 q 510 0 536 0 l 364 0 q 160 72 244 0 q 72 243 72 144 l 72 607 q 160 779 72 707 q 364 850 243 850 l 510 850 q 623 833 572 850 q 717 781 675 817 q 802 607 802 710 l 802 -122 z "},"h":{"ha":875,"x_min":72,"x_max":802,"o":"m 656 0 l 656 486 q 644 533 656 511 q 613 572 633 555 q 566 597 593 588 q 510 607 540 607 l 364 607 q 308 597 334 607 q 261 572 281 588 q 230 533 241 555 q 218 486 218 511 l 218 0 l 72 0 l 72 1034 l 218 1034 l 218 770 q 271 831 218 807 q 315 845 292 841 q 364 850 338 850 l 510 850 q 715 779 631 850 q 802 607 802 707 l 802 0 l 656 0 z "},"i":{"ha":292,"x_min":72,"x_max":218,"o":"m 72 0 l 72 850 l 218 850 l 218 0 l 72 0 z "},"j":{"ha":583,"x_min":72,"x_max":510,"o":"m 510 -122 q 425 -294 510 -224 q 218 -366 342 -366 l 72 -366 l 72 -122 l 218 -122 q 276 -113 250 -122 q 322 -87 302 -103 q 353 -48 342 -71 q 364 0 364 -26 l 364 607 l 72 607 l 72 850 l 510 850 l 510 -122 z "},"k":{"ha":875,"x_min":72,"x_max":802,"o":"m 656 0 l 656 182 q 645 231 656 208 q 614 269 633 253 q 568 295 594 286 q 510 304 541 304 l 218 304 l 218 0 l 72 0 l 72 1034 l 218 1034 l 218 547 l 510 547 q 568 556 541 547 q 614 582 594 566 q 645 620 633 598 q 656 668 656 642 l 656 850 l 802 850 l 802 644 q 791 576 802 609 q 759 514 780 543 q 708 463 739 486 q 640 425 678 440 q 708 387 678 410 q 759 336 739 364 q 791 274 780 307 q 802 207 802 241 l 802 0 l 656 0 z "},"l":{"ha":401,"x_min":72,"x_max":364,"o":"m 364 0 q 158 71 242 0 q 94 149 115 106 q 72 243 72 192 l 72 1034 l 218 1034 l 218 364 q 230 316 218 338 q 260 278 241 294 q 307 252 280 262 q 364 243 334 243 l 364 0 z "},"m":{"ha":1458,"x_min":72,"x_max":1385,"o":"m 1239 0 l 1239 486 q 1227 533 1239 511 q 1196 572 1216 555 q 1150 597 1177 588 q 1093 607 1124 607 l 947 607 q 890 598 917 607 q 844 572 863 589 q 813 534 824 556 q 802 486 802 512 l 802 0 l 656 0 l 656 486 q 645 534 656 512 q 614 572 633 556 q 568 598 594 589 q 510 607 541 607 l 364 607 q 308 597 334 607 q 261 572 281 588 q 230 533 241 555 q 218 486 218 511 l 218 0 l 72 0 l 72 607 q 160 779 72 707 q 364 850 243 850 l 452 850 q 543 838 499 850 q 623 805 587 827 q 687 753 660 784 q 729 685 715 723 q 771 753 744 723 q 834 805 798 784 q 915 838 871 827 q 1006 850 958 850 l 1093 850 q 1299 779 1214 850 q 1385 607 1385 707 l 1385 0 l 1239 0 z "},"n":{"ha":875,"x_min":72,"x_max":802,"o":"m 656 0 l 656 486 q 645 534 656 512 q 614 572 633 556 q 568 598 594 589 q 510 607 541 607 l 364 607 q 308 597 334 607 q 261 572 281 588 q 230 533 241 555 q 218 486 218 511 l 218 0 l 72 0 l 72 607 q 94 701 72 658 q 158 779 115 743 q 252 832 200 815 q 364 850 304 850 l 510 850 q 623 833 572 850 q 717 781 675 817 q 802 607 802 710 l 802 0 l 656 0 z "},"o":{"ha":875,"x_min":72,"x_max":802,"o":"m 656 486 q 644 533 656 511 q 613 572 633 555 q 566 597 593 588 q 510 607 540 607 l 364 607 q 308 597 334 607 q 261 572 281 588 q 230 533 241 555 q 218 486 218 511 l 218 364 q 230 317 218 339 q 261 278 241 295 q 308 252 281 262 q 364 243 334 243 l 510 243 q 568 252 541 243 q 614 278 594 262 q 645 316 633 294 q 656 364 656 338 l 656 486 m 802 243 q 717 71 802 141 q 510 0 633 0 l 364 0 q 252 18 304 0 q 158 71 200 35 q 94 150 115 106 q 72 243 72 193 l 72 607 q 94 701 72 658 q 158 779 115 743 q 252 832 200 815 q 364 850 304 850 l 510 850 q 715 779 631 850 q 802 607 802 707 l 802 243 z "},"p":{"ha":875,"x_min":72,"x_max":802,"o":"m 656 486 q 644 533 656 511 q 613 572 633 555 q 566 597 593 588 q 510 607 540 607 l 364 607 q 307 598 334 607 q 260 572 280 589 q 230 534 241 556 q 218 486 218 512 l 218 364 q 230 317 218 339 q 261 278 241 295 q 308 252 281 262 q 364 243 334 243 l 510 243 q 566 252 540 243 q 613 278 593 262 q 644 317 633 295 q 656 364 656 339 l 656 486 m 802 243 q 715 72 802 144 q 510 0 631 0 l 364 0 q 315 4 338 0 q 271 20 292 9 q 218 82 220 42 l 218 -243 l 72 -243 l 72 607 q 94 701 72 658 q 158 781 115 745 q 252 833 200 817 q 364 850 303 850 l 510 850 q 715 779 631 850 q 802 607 802 707 l 802 243 z "},"q":{"ha":875,"x_min":72,"x_max":802,"o":"m 656 486 q 645 534 656 512 q 614 572 633 556 q 568 598 594 589 q 510 607 541 607 l 364 607 q 308 597 334 607 q 261 572 281 588 q 230 533 241 555 q 218 486 218 511 l 218 364 q 230 317 218 339 q 261 278 241 295 q 308 252 281 262 q 364 243 334 243 l 510 243 q 566 252 540 243 q 613 278 593 262 q 644 317 633 295 q 656 364 656 339 l 656 486 m 656 -243 l 656 82 q 642 47 656 62 q 604 20 628 31 q 559 4 583 9 q 510 0 536 0 l 364 0 q 160 72 244 0 q 72 243 72 144 l 72 607 q 160 779 72 707 q 364 850 243 850 l 510 850 q 623 833 572 850 q 717 781 675 817 q 802 607 802 710 l 802 -243 l 656 -243 z "},"r":{"ha":693,"x_min":72,"x_max":656,"o":"m 364 607 q 308 597 334 607 q 261 572 281 588 q 230 533 241 555 q 218 486 218 511 l 218 0 l 72 0 l 72 850 l 218 850 l 218 770 q 271 831 220 807 q 315 845 292 841 q 364 850 338 850 l 656 850 l 656 607 l 364 607 z "},"s":{"ha":875,"x_min":72,"x_max":802,"o":"m 802 243 q 715 72 802 144 q 510 0 631 0 l 72 0 l 72 243 l 510 243 q 562 260 541 243 q 583 304 583 278 q 577 328 583 317 q 561 347 571 338 q 537 359 551 355 q 510 364 524 364 l 364 364 q 160 436 245 364 q 72 607 72 508 q 160 779 72 707 q 364 850 243 850 l 802 850 l 802 607 l 364 607 q 335 602 349 607 q 313 589 322 597 q 297 570 303 581 q 292 547 292 559 q 297 524 292 535 q 313 504 303 513 q 336 491 323 496 q 364 486 349 486 l 510 486 q 715 414 629 486 q 802 243 802 343 z "},"t":{"ha":693,"x_min":72,"x_max":656,"o":"m 364 0 q 158 71 242 0 q 94 149 115 106 q 72 243 72 192 l 72 972 l 218 972 l 218 850 l 510 850 l 510 729 l 218 729 l 218 364 q 230 316 218 338 q 260 278 241 294 q 307 252 280 262 q 364 243 334 243 l 656 243 l 656 0 l 364 0 z "},"u":{"ha":875,"x_min":72,"x_max":802,"o":"m 802 243 q 717 71 802 141 q 510 0 633 0 l 364 0 q 252 18 304 0 q 158 71 200 35 q 94 150 115 106 q 72 243 72 193 l 72 850 l 218 850 l 218 364 q 230 317 218 339 q 261 278 241 295 q 308 252 281 262 q 364 243 334 243 l 510 243 q 568 252 541 243 q 614 278 594 262 q 645 316 633 294 q 656 364 656 338 l 656 850 l 802 850 l 802 243 z "},"v":{"ha":875,"x_min":72,"x_max":802,"o":"m 802 243 q 717 71 802 141 q 510 0 633 0 l 72 0 l 72 850 l 218 850 l 218 243 l 510 243 q 568 252 541 243 q 614 278 594 262 q 645 316 633 294 q 656 364 656 338 l 656 850 l 802 850 l 802 243 z "},"w":{"ha":1458,"x_min":72,"x_max":1385,"o":"m 1385 243 q 1299 72 1385 144 q 1093 0 1214 0 l 1006 0 q 915 12 958 0 q 834 44 871 23 q 771 97 798 66 q 729 165 744 127 q 687 97 715 127 q 623 44 660 66 q 543 12 587 23 q 452 0 499 0 l 364 0 q 160 72 244 0 q 72 243 72 144 l 72 850 l 218 850 l 218 364 q 230 317 218 339 q 261 278 241 295 q 308 252 281 262 q 364 243 334 243 l 510 243 q 568 252 541 243 q 614 278 594 262 q 645 316 633 294 q 656 364 656 338 l 656 850 l 802 850 l 802 364 q 813 316 802 338 q 844 278 824 294 q 890 252 863 262 q 947 243 917 243 l 1093 243 q 1150 252 1124 243 q 1196 278 1177 262 q 1227 317 1216 295 q 1239 364 1239 339 l 1239 850 l 1385 850 l 1385 243 z "},"x":{"ha":875,"x_min":72,"x_max":802,"o":"m 714 0 q 625 12 667 0 q 545 46 583 23 q 437 168 467 94 q 330 46 408 94 q 250 12 292 23 q 160 0 208 0 l 72 0 l 72 243 l 218 243 q 275 252 248 243 q 321 278 301 262 q 353 317 341 295 q 364 364 364 339 l 364 486 q 353 533 364 511 q 321 572 341 555 q 275 597 301 588 q 218 607 248 607 l 72 607 l 72 850 l 160 850 q 250 838 208 850 q 330 803 292 827 q 437 684 408 757 q 545 803 467 757 q 714 850 621 850 l 802 850 l 802 607 l 656 607 q 600 597 626 607 q 553 572 573 588 q 522 533 533 555 q 510 486 510 511 l 510 364 q 522 317 510 339 q 553 278 533 295 q 600 252 573 262 q 656 243 626 243 l 802 243 l 802 0 l 714 0 z "},"y":{"ha":875,"x_min":72,"x_max":802,"o":"m 802 -122 q 717 -294 802 -224 q 510 -366 633 -366 l 364 -366 l 364 -122 l 510 -122 q 568 -113 541 -122 q 614 -87 594 -103 q 645 -48 633 -71 q 656 0 656 -26 l 656 82 q 642 47 656 62 q 604 20 628 31 q 559 4 583 9 q 510 0 536 0 l 364 0 q 160 72 244 0 q 72 243 72 144 l 72 850 l 218 850 l 218 364 q 230 317 218 339 q 261 278 241 295 q 308 252 281 262 q 364 243 334 243 l 510 243 q 568 252 541 243 q 614 278 594 262 q 645 316 633 294 q 656 364 656 338 l 656 850 l 802 850 l 802 -122 z "},"z":{"ha":875,"x_min":72,"x_max":802,"o":"m 72 0 l 72 243 l 539 607 l 72 607 l 72 850 l 802 850 l 802 607 l 335 243 l 802 243 l 802 0 l 72 0 z "},"{":{"ha":656,"x_min":72,"x_max":510,"o":"m 510 -122 q 399 -104 450 -122 q 306 -50 349 -85 q 218 121 218 21 l 218 425 l 72 425 l 72 547 l 218 547 l 218 850 q 306 1022 218 951 q 510 1093 391 1093 l 510 850 q 454 840 480 850 q 407 814 427 831 q 376 776 387 798 q 364 729 364 754 l 364 243 q 376 196 364 218 q 407 157 387 174 q 454 131 427 140 q 510 121 480 121 l 510 -122 z "},"|":{"ha":292,"x_min":72,"x_max":218,"o":"m 72 -122 l 72 1093 l 218 1093 l 218 -122 l 72 -122 z "},"}":{"ha":656,"x_min":146,"x_max":583,"o":"m 437 425 l 437 121 q 351 -50 437 22 q 258 -104 309 -85 q 146 -122 207 -122 l 146 121 q 203 131 176 121 q 249 157 229 140 q 280 196 269 174 q 292 243 292 218 l 292 729 q 280 776 292 754 q 249 814 269 798 q 203 840 229 831 q 146 850 176 850 l 146 1093 q 351 1022 266 1093 q 437 850 437 951 l 437 547 l 583 547 l 583 425 l 437 425 z "},"~":{"ha":758,"x_min":72,"x_max":685,"o":"m 685 425 q 588 389 638 401 q 481 376 537 376 q 379 401 444 376 q 320 419 346 413 q 277 425 295 425 q 171 413 221 425 q 72 376 121 401 l 72 473 q 171 511 121 499 q 277 522 221 522 q 379 498 312 522 q 437 480 412 486 q 481 473 463 473 q 588 486 537 473 q 685 522 638 498 l 685 425 z "},"€":{"ha":875,"x_min":72,"x_max":802,"o":"m 364 0 q 160 72 244 0 q 72 243 72 144 l 72 729 q 160 900 72 828 q 254 954 203 936 q 364 972 304 972 l 802 972 l 802 729 l 364 729 q 308 720 334 729 q 261 693 281 710 q 230 654 241 677 q 218 607 218 632 l 656 607 l 656 522 l 218 522 l 218 450 l 656 450 l 656 364 l 218 364 q 230 317 218 339 q 261 278 241 295 q 308 252 281 262 q 364 243 334 243 l 802 243 l 802 0 l 364 0 z "},"‚":{"ha":350,"x_min":72,"x_max":277,"o":"m 131 -122 l 131 -74 l 218 -74 l 218 0 l 72 0 l 72 170 l 277 170 l 277 -122 l 131 -122 z "},"ƒ":{"ha":839,"x_min":-220,"x_max":802,"o":"m 778 790 l 486 790 q 427 781 454 790 q 379 756 400 772 q 345 718 359 740 q 326 668 332 695 q 314 547 324 662 l 606 547 l 593 425 l 301 425 l 257 0 q 251 -50 255 -20 q 243 -122 248 -80 q 140 -296 229 -225 q -74 -366 52 -366 l -220 -366 l -195 -122 l -49 -122 q 10 -113 -18 -122 q 59 -87 38 -103 q 94 -48 81 -71 q 111 0 108 -26 l 195 790 q 296 962 205 892 q 510 1034 387 1034 l 802 1034 l 778 790 z "},"„":{"ha":671,"x_min":72,"x_max":597,"o":"m 131 -122 l 131 -74 l 218 -74 l 218 0 l 72 0 l 72 170 l 277 170 l 277 -122 l 131 -122 m 452 -122 l 452 -74 l 539 -74 l 539 0 l 393 0 l 393 170 l 597 170 l 597 -122 l 452 -122 z "},"…":{"ha":1050,"x_min":72,"x_max":977,"o":"m 72 0 l 72 170 l 277 170 l 277 0 l 72 0 m 422 0 l 422 170 l 627 170 l 627 0 l 422 0 m 772 0 l 772 170 l 977 170 l 977 0 l 772 0 z "},"†":{"ha":729,"x_min":72,"x_max":656,"o":"m 437 607 l 437 -243 l 292 -243 l 292 607 l 72 607 l 72 729 l 292 729 l 292 972 l 437 972 l 437 729 l 656 729 l 656 607 l 437 607 z "},"‡":{"ha":729,"x_min":72,"x_max":656,"o":"m 437 243 l 437 -243 l 292 -243 l 292 243 l 72 243 l 72 364 l 292 364 l 292 607 l 72 607 l 72 729 l 292 729 l 292 972 l 437 972 l 437 729 l 656 729 l 656 607 l 437 607 l 437 364 l 656 364 l 656 243 l 437 243 z "},"ˆ":{"ha":496,"x_min":72,"x_max":422,"o":"m 335 802 l 248 904 l 160 802 l 72 802 l 189 972 l 306 972 l 422 802 l 335 802 z "},"‰":{"ha":1997,"x_min":72,"x_max":1925,"o":"m 510 699 q 502 734 510 718 q 478 763 493 751 q 444 783 463 776 q 401 790 424 790 l 292 790 q 249 783 269 790 q 214 763 229 776 q 191 734 199 751 q 182 699 182 718 l 182 607 q 191 572 182 589 q 214 544 199 556 q 249 524 229 531 q 292 517 269 517 l 401 517 q 445 524 425 517 q 479 543 465 530 q 502 571 494 555 q 510 607 510 587 l 510 699 m 1378 364 q 1369 399 1378 382 q 1345 428 1360 416 q 1311 448 1331 441 q 1268 456 1291 456 l 1160 456 q 1117 448 1137 456 q 1082 428 1097 441 q 1059 399 1067 416 q 1050 364 1050 382 l 1050 273 q 1059 238 1050 255 q 1082 209 1067 222 q 1117 189 1097 197 q 1160 182 1137 182 l 1268 182 q 1312 189 1292 182 q 1347 208 1333 196 q 1370 237 1362 220 q 1378 273 1378 254 l 1378 364 m 1815 364 q 1807 399 1815 382 q 1783 428 1798 416 q 1748 448 1768 441 q 1706 456 1728 456 l 1597 456 q 1555 448 1575 456 q 1520 428 1535 441 q 1496 399 1505 416 q 1487 364 1487 382 l 1487 273 q 1495 237 1487 254 q 1518 208 1503 220 q 1553 189 1533 196 q 1597 182 1573 182 l 1706 182 q 1748 189 1728 182 q 1783 209 1768 197 q 1807 238 1798 222 q 1815 273 1815 255 l 1815 364 m 619 517 q 603 446 619 478 q 555 386 587 414 q 401 335 492 335 l 292 335 q 208 348 247 335 q 138 387 169 361 q 72 517 72 441 l 72 790 q 138 918 72 866 q 208 959 169 945 q 292 972 247 972 l 401 972 q 555 918 491 972 q 619 790 619 866 l 619 517 m 707 0 l 707 972 l 852 972 l 852 0 l 707 0 m 1925 182 q 1861 53 1925 108 q 1706 0 1796 0 l 1655 0 q 1584 9 1619 0 q 1519 35 1549 18 q 1468 76 1490 52 q 1434 127 1445 99 q 1399 76 1422 99 q 1347 35 1377 52 q 1281 9 1316 18 q 1210 0 1246 0 l 1160 0 q 1006 53 1069 0 q 940 182 940 107 l 940 456 q 1006 585 940 530 q 1160 637 1069 637 l 1210 637 q 1281 628 1246 637 q 1347 602 1316 619 q 1399 562 1377 585 q 1434 510 1422 538 q 1468 562 1445 538 q 1519 602 1490 585 q 1584 628 1549 619 q 1655 637 1619 637 l 1706 637 q 1861 585 1796 637 q 1925 456 1925 530 l 1925 182 z "},"Š":{"ha":875,"x_min":72,"x_max":802,"o":"m 802 243 q 715 72 802 144 q 510 0 631 0 l 72 0 l 72 243 l 473 243 q 516 250 496 243 q 551 270 536 258 q 574 299 566 283 q 583 335 583 316 q 574 370 583 353 q 551 398 566 386 q 516 418 536 410 q 473 425 496 425 l 364 425 q 254 444 304 425 q 160 497 203 462 q 72 668 72 569 l 72 729 q 160 900 72 828 q 254 954 203 936 q 364 972 304 972 l 802 972 l 802 729 l 401 729 q 359 722 379 729 q 324 702 339 715 q 300 673 309 690 q 292 637 292 656 q 300 602 292 618 q 324 574 309 586 q 359 554 339 562 q 401 547 379 547 l 510 547 q 715 475 629 547 q 802 304 802 404 l 802 243 m 496 1044 l 379 1044 l 262 1215 l 350 1215 l 437 1112 l 525 1215 l 612 1215 l 496 1044 z "},"‹":{"ha":576,"x_min":72,"x_max":503,"o":"m 439 239 l 72 437 l 72 534 l 439 733 l 503 652 l 197 486 l 503 321 l 439 239 z "},"Œ":{"ha":1239,"x_min":72,"x_max":1166,"o":"m 656 607 q 644 654 656 632 q 613 693 633 677 q 566 720 593 710 q 510 729 540 729 l 364 729 q 308 720 334 729 q 261 693 281 710 q 230 654 241 677 q 218 607 218 632 l 218 364 q 230 317 218 339 q 261 278 241 295 q 308 252 281 262 q 364 243 334 243 l 510 243 q 568 252 541 243 q 614 278 594 262 q 645 316 633 294 q 656 364 656 338 l 656 607 m 1006 0 q 914 12 957 0 q 836 47 871 24 q 774 102 801 70 q 732 174 747 134 q 692 102 719 134 q 629 47 665 70 q 547 12 592 24 q 452 0 501 0 l 364 0 q 252 18 304 0 q 158 71 200 35 q 94 150 115 106 q 72 243 72 193 l 72 729 q 94 822 72 780 q 158 900 115 864 q 252 954 200 936 q 364 972 304 972 l 452 972 q 563 955 512 972 q 656 903 613 937 l 656 972 l 1166 972 l 1166 729 l 802 729 l 802 547 l 1021 547 l 1021 425 l 802 425 l 802 364 q 813 316 802 338 q 844 278 824 294 q 890 252 863 262 q 947 243 917 243 l 1166 243 l 1166 0 l 1006 0 z "},"Ž":{"ha":875,"x_min":72,"x_max":802,"o":"m 72 0 l 72 243 l 583 729 l 72 729 l 72 972 l 802 972 l 802 729 l 292 243 l 802 243 l 802 0 l 72 0 m 496 1044 l 379 1044 l 262 1215 l 350 1215 l 437 1112 l 525 1215 l 612 1215 l 496 1044 z "},"‘":{"ha":350,"x_min":72,"x_max":277,"o":"m 72 742 l 72 1034 l 218 1034 l 218 985 l 131 985 l 131 911 l 277 911 l 277 742 l 72 742 z "},"’":{"ha":350,"x_min":72,"x_max":277,"o":"m 131 742 l 131 790 l 218 790 l 218 863 l 72 863 l 72 1034 l 277 1034 l 277 742 l 131 742 z "},"“":{"ha":671,"x_min":72,"x_max":597,"o":"m 72 742 l 72 1034 l 218 1034 l 218 985 l 131 985 l 131 911 l 277 911 l 277 742 l 72 742 m 393 742 l 393 1034 l 539 1034 l 539 985 l 452 985 l 452 911 l 597 911 l 597 742 l 393 742 z "},"”":{"ha":671,"x_min":72,"x_max":597,"o":"m 131 742 l 131 790 l 218 790 l 218 863 l 72 863 l 72 1034 l 277 1034 l 277 742 l 131 742 m 452 742 l 452 790 l 539 790 l 539 863 l 393 863 l 393 1034 l 597 1034 l 597 742 l 452 742 z "},"•":{"ha":656,"x_min":110,"x_max":547,"o":"m 547 340 q 536 292 547 314 q 505 253 525 269 q 459 228 486 237 q 401 218 432 218 l 256 218 q 199 228 225 218 q 153 254 172 237 q 121 293 133 271 q 110 340 110 315 l 110 510 q 121 557 110 535 q 153 596 133 580 q 199 623 172 613 q 256 632 225 632 l 401 632 q 458 623 431 632 q 504 596 484 613 q 536 557 524 580 q 547 510 547 535 l 547 340 z "},"–":{"ha":583,"x_min":72,"x_max":510,"o":"m 72 376 l 72 473 l 510 473 l 510 376 l 72 376 z "},"—":{"ha":875,"x_min":72,"x_max":802,"o":"m 72 376 l 72 473 l 802 473 l 802 376 l 72 376 z "},"˜":{"ha":583,"x_min":72,"x_max":510,"o":"m 510 875 q 444 838 479 850 q 364 827 408 827 q 292 850 336 827 q 218 875 248 875 q 139 863 176 875 q 72 827 102 852 l 72 924 q 139 961 102 949 q 218 972 176 972 q 292 947 247 972 q 364 924 336 924 q 444 935 408 924 q 510 972 479 947 l 510 875 z "},"™":{"ha":1633,"x_min":72,"x_max":1560,"o":"m 1451 364 l 1451 699 q 1442 734 1451 718 q 1419 763 1434 751 q 1384 783 1404 776 q 1341 790 1364 790 l 1232 790 q 1188 783 1208 790 q 1154 764 1168 777 q 1131 735 1139 752 q 1122 699 1122 718 l 1122 364 l 1014 364 l 1014 699 q 1005 735 1014 718 q 982 764 997 752 q 947 783 968 777 q 904 790 927 790 l 794 790 q 752 783 772 790 q 717 763 732 776 q 694 734 703 751 q 685 699 685 718 l 685 364 l 576 364 l 576 790 l 401 790 l 401 364 l 292 364 l 292 790 l 72 790 l 72 972 l 619 972 l 619 899 q 794 972 687 972 l 860 972 q 929 963 896 972 q 990 938 962 954 q 1038 899 1017 922 q 1069 848 1059 876 q 1101 899 1080 876 q 1148 938 1121 922 q 1208 963 1175 954 q 1276 972 1240 972 l 1341 972 q 1496 918 1430 972 q 1560 790 1560 867 l 1560 364 l 1451 364 z "},"š":{"ha":875,"x_min":72,"x_max":802,"o":"m 802 243 q 715 72 802 144 q 510 0 631 0 l 72 0 l 72 243 l 510 243 q 562 260 541 243 q 583 304 583 278 q 577 328 583 317 q 561 347 571 338 q 537 359 551 355 q 510 364 524 364 l 364 364 q 160 436 245 364 q 72 607 72 508 q 160 779 72 707 q 364 850 243 850 l 802 850 l 802 607 l 364 607 q 335 602 349 607 q 313 589 322 597 q 297 570 303 581 q 292 547 292 559 q 297 524 292 535 q 313 504 303 513 q 336 491 323 496 q 364 486 349 486 l 510 486 q 715 414 629 486 q 802 243 802 343 m 496 924 l 379 924 l 262 1093 l 350 1093 l 437 991 l 525 1093 l 612 1093 l 496 924 z "},"›":{"ha":576,"x_min":72,"x_max":503,"o":"m 138 239 l 72 321 l 379 486 l 72 652 l 138 733 l 503 534 l 503 437 l 138 239 z "},"œ":{"ha":1312,"x_min":72,"x_max":1239,"o":"m 656 486 q 644 533 656 511 q 613 572 633 555 q 566 597 593 588 q 510 607 540 607 l 364 607 q 308 597 334 607 q 261 572 281 588 q 230 533 241 555 q 218 486 218 511 l 218 364 q 230 317 218 339 q 261 278 241 295 q 308 252 281 262 q 364 243 334 243 l 510 243 q 568 252 541 243 q 614 278 594 262 q 645 316 633 294 q 656 364 656 338 l 656 486 m 1006 0 q 917 12 959 0 q 836 46 875 23 q 729 167 758 92 q 688 98 715 129 q 624 45 661 67 q 544 12 588 24 q 452 0 500 0 l 364 0 q 252 18 304 0 q 158 71 200 35 q 94 150 115 106 q 72 243 72 193 l 72 607 q 94 701 72 658 q 158 779 115 743 q 252 832 200 815 q 364 850 304 850 l 452 850 q 623 803 547 850 q 688 750 661 780 q 729 684 715 721 q 836 803 758 757 q 1006 850 912 850 l 1239 850 l 1239 607 l 947 607 q 891 597 918 607 q 845 572 865 588 q 813 533 825 555 q 802 486 802 511 l 1093 486 l 1093 364 l 802 364 q 813 317 802 339 q 845 278 825 295 q 891 252 865 262 q 947 243 918 243 l 1239 243 l 1239 0 l 1006 0 z "},"ž":{"ha":875,"x_min":72,"x_max":802,"o":"m 72 0 l 72 243 l 539 607 l 72 607 l 72 850 l 802 850 l 802 607 l 335 243 l 802 243 l 802 0 l 72 0 m 496 924 l 379 924 l 262 1093 l 350 1093 l 437 991 l 525 1093 l 612 1093 l 496 924 z "},"Ÿ":{"ha":875,"x_min":72,"x_max":802,"o":"m 802 534 q 717 363 802 433 q 510 292 633 292 l 510 0 l 364 0 l 364 292 q 160 363 244 292 q 72 534 72 433 l 72 972 l 218 972 l 218 656 q 230 609 218 631 q 261 570 241 587 q 308 544 281 553 q 364 534 334 534 l 510 534 q 568 544 541 534 q 614 570 594 553 q 645 608 633 586 q 656 656 656 630 l 656 972 l 802 972 l 802 534 m 218 1044 l 218 1166 l 364 1166 l 364 1044 l 218 1044 m 510 1044 l 510 1166 l 656 1166 l 656 1044 l 510 1044 z "},"¡":{"ha":350,"x_min":72,"x_max":277,"o":"m 72 -122 l 131 558 l 218 558 l 277 -122 l 72 -122 m 72 681 l 72 850 l 277 850 l 277 681 l 72 681 z "},"¢":{"ha":875,"x_min":72,"x_max":802,"o":"m 583 121 l 583 0 l 437 0 l 437 121 l 364 121 q 254 139 304 121 q 160 193 203 157 q 72 364 72 264 l 72 729 q 160 900 72 828 q 254 954 203 936 q 364 972 304 972 l 437 972 l 437 1093 l 583 1093 l 583 972 l 802 972 l 802 729 l 364 729 q 308 720 334 729 q 261 693 281 710 q 230 654 241 677 q 218 607 218 632 l 218 486 q 230 439 218 461 q 261 400 241 416 q 308 374 281 383 q 364 364 334 364 l 802 364 l 802 121 l 583 121 z "},"£":{"ha":875,"x_min":72,"x_max":802,"o":"m 72 0 l 72 790 q 94 884 72 842 q 158 962 115 927 q 364 1034 241 1034 l 656 1034 l 656 790 l 364 790 q 307 781 334 790 q 260 755 280 771 q 230 716 241 739 q 218 668 218 694 l 218 547 l 510 547 l 510 425 l 218 425 l 218 243 l 802 243 l 802 0 l 72 0 z "},"¤":{"ha":875,"x_min":72,"x_max":802,"o":"m 364 0 q 160 72 244 0 q 72 243 72 144 l 72 729 q 160 900 72 828 q 254 954 203 936 q 364 972 304 972 l 802 972 l 802 729 l 364 729 q 308 720 334 729 q 261 693 281 710 q 230 654 241 677 q 218 607 218 632 l 656 607 l 656 522 l 218 522 l 218 450 l 656 450 l 656 364 l 218 364 q 230 317 218 339 q 261 278 241 295 q 308 252 281 262 q 364 243 334 243 l 802 243 l 802 0 l 364 0 z "},"¥":{"ha":875,"x_min":72,"x_max":802,"o":"m 510 121 l 510 0 l 364 0 l 364 121 l 72 121 l 72 243 l 364 243 l 364 364 l 72 364 l 72 486 l 364 486 q 160 557 245 486 q 72 729 72 629 l 72 972 l 218 972 l 218 778 q 230 731 218 753 q 261 692 241 709 q 308 666 281 675 q 364 656 334 656 l 510 656 q 568 665 541 656 q 614 690 594 674 q 645 729 633 707 q 656 778 656 751 l 656 972 l 802 972 l 802 729 q 717 557 802 627 q 510 486 633 486 l 802 486 l 802 364 l 510 364 l 510 243 l 802 243 l 802 121 l 510 121 z "},"¦":{"ha":292,"x_min":72,"x_max":218,"o":"m 72 -122 l 72 401 l 218 401 l 218 -122 l 72 -122 m 72 571 l 72 1093 l 218 1093 l 218 571 l 72 571 z "},"§":{"ha":875,"x_min":72,"x_max":802,"o":"m 583 364 q 572 412 583 389 q 541 451 560 434 q 494 477 521 467 q 437 486 468 486 q 380 477 407 486 q 334 451 354 467 q 303 412 315 434 q 292 364 292 389 q 303 317 292 339 q 334 278 315 295 q 380 252 354 262 q 437 243 407 243 q 494 252 468 243 q 541 278 521 262 q 572 317 560 295 q 583 364 583 339 m 802 0 q 715 -171 802 -99 q 510 -243 631 -243 l 72 -243 l 72 0 l 510 0 q 537 5 524 0 q 561 18 551 9 q 577 38 571 26 q 583 61 583 49 q 577 84 583 73 q 561 103 571 95 q 537 116 551 111 q 510 121 524 121 l 364 121 q 254 139 304 121 q 160 193 203 157 q 72 364 72 264 q 98 465 72 419 q 172 547 123 511 q 98 629 123 584 q 72 729 72 674 q 160 900 72 828 q 254 954 203 936 q 364 972 304 972 l 802 972 l 802 729 l 364 729 q 336 724 349 729 q 313 711 323 720 q 297 691 303 703 q 292 668 292 680 q 297 645 292 656 q 313 626 303 634 q 336 612 323 617 q 364 607 349 607 l 510 607 q 715 536 629 607 q 802 364 802 465 q 703 182 802 255 q 802 0 802 109 z "},"¨":{"ha":583,"x_min":72,"x_max":510,"o":"m 72 850 l 72 972 l 218 972 l 218 850 l 72 850 m 364 850 l 364 972 l 510 972 l 510 850 l 364 850 z "},"©":{"ha":1021,"x_min":72,"x_max":947,"o":"m 444 146 q 388 155 414 146 q 341 181 361 165 q 310 219 321 197 q 298 267 298 241 l 298 510 q 310 557 298 535 q 341 596 321 580 q 388 623 361 613 q 444 632 414 632 l 664 632 l 664 510 l 444 510 q 417 505 430 510 q 394 492 404 500 q 378 473 384 484 q 372 450 372 463 l 372 328 q 378 304 372 315 q 394 285 384 294 q 417 272 404 277 q 444 267 430 267 l 664 267 l 664 146 l 444 146 m 860 583 q 848 630 860 608 q 817 669 837 652 q 770 694 797 685 q 714 704 744 704 l 306 704 q 250 694 276 704 q 203 669 223 685 q 172 630 183 652 q 160 583 160 608 l 160 195 q 172 147 160 170 q 203 108 183 125 q 250 82 223 92 q 306 72 276 72 l 714 72 q 772 81 745 72 q 818 107 799 91 q 849 146 838 123 q 860 195 860 168 l 860 583 m 947 243 q 863 71 947 141 q 656 0 779 0 l 364 0 q 252 18 304 0 q 158 71 200 35 q 94 150 115 106 q 72 243 72 193 l 72 534 q 94 628 72 585 q 158 705 115 670 q 252 760 200 741 q 364 778 304 778 l 656 778 q 767 760 716 778 q 861 705 819 741 q 947 534 947 635 l 947 243 z "},"ª":{"ha":693,"x_min":72,"x_max":619,"o":"m 510 699 q 502 735 510 718 q 479 764 494 752 q 445 783 465 777 q 401 790 425 790 l 292 790 q 249 783 269 790 q 214 763 229 776 q 191 734 199 751 q 182 699 182 718 l 182 607 q 191 572 182 589 q 214 544 199 556 q 249 524 229 531 q 292 517 269 517 l 401 517 q 444 524 424 517 q 478 544 463 531 q 502 572 493 556 q 510 607 510 589 l 510 699 m 510 335 l 510 395 q 471 349 510 366 q 439 338 456 341 q 401 335 421 335 l 292 335 q 208 348 247 335 q 138 387 169 361 q 72 517 72 441 l 72 790 q 138 918 72 866 q 208 959 169 945 q 292 972 247 972 l 401 972 q 555 918 491 972 q 619 790 619 866 l 619 335 l 510 335 z "},"«":{"ha":1014,"x_min":72,"x_max":940,"o":"m 439 0 l 72 199 l 72 296 l 439 493 l 503 412 l 197 248 l 503 82 l 439 0 m 876 0 l 510 199 l 510 296 l 876 493 l 940 412 l 635 248 l 940 82 l 876 0 z "},"¬":{"ha":729,"x_min":72,"x_max":656,"o":"m 539 256 l 539 376 l 72 376 l 72 473 l 656 473 l 656 256 l 539 256 z "},"®":{"ha":1021,"x_min":72,"x_max":947,"o":"m 583 465 q 567 497 583 484 q 529 510 551 510 l 401 510 l 401 419 l 529 419 q 550 423 540 419 q 567 433 559 427 q 579 448 574 439 q 583 465 583 456 m 619 146 l 619 273 q 613 307 619 291 q 594 334 606 322 q 566 352 583 345 q 529 358 549 358 l 401 358 l 401 146 l 328 146 l 328 632 l 547 632 q 604 623 577 632 q 650 596 630 613 q 682 557 670 580 q 693 510 693 535 q 668 433 693 464 q 591 389 642 402 q 693 273 693 362 l 693 146 l 619 146 m 860 583 q 848 630 860 608 q 817 669 837 652 q 770 694 797 685 q 714 704 744 704 l 306 704 q 250 694 276 704 q 203 669 223 685 q 172 630 183 652 q 160 583 160 608 l 160 195 q 172 147 160 170 q 203 108 183 125 q 250 82 223 92 q 306 72 276 72 l 714 72 q 772 81 745 72 q 818 107 799 91 q 849 146 838 123 q 860 195 860 168 l 860 583 m 947 243 q 863 71 947 141 q 656 0 779 0 l 364 0 q 252 18 304 0 q 158 71 200 35 q 94 150 115 106 q 72 243 72 193 l 72 534 q 94 628 72 585 q 158 705 115 670 q 252 760 200 741 q 364 778 304 778 l 656 778 q 767 760 716 778 q 861 705 819 741 q 947 534 947 635 l 947 243 z "},"°":{"ha":496,"x_min":72,"x_max":422,"o":"m 364 888 q 355 925 364 907 q 330 956 346 943 q 293 977 315 969 q 248 985 272 985 q 202 977 223 985 q 165 956 181 969 q 140 925 149 943 q 131 888 131 907 q 140 849 131 867 q 165 818 149 831 q 202 798 181 805 q 248 790 223 790 q 293 798 272 790 q 330 818 315 805 q 355 849 346 831 q 364 888 364 867 m 422 888 q 372 783 422 825 q 248 742 321 742 q 123 783 175 742 q 85 831 98 804 q 72 888 72 857 q 85 944 72 918 q 123 990 98 969 q 180 1022 149 1011 q 248 1034 211 1034 q 315 1022 284 1034 q 372 990 347 1011 q 422 888 422 948 z "},"±":{"ha":729,"x_min":72,"x_max":656,"o":"m 72 0 l 72 97 l 656 97 l 656 0 l 72 0 m 422 437 l 422 243 l 306 243 l 306 437 l 72 437 l 72 534 l 306 534 l 306 729 l 422 729 l 422 534 l 656 534 l 656 437 l 422 437 z "},"²":{"ha":510,"x_min":72,"x_max":437,"o":"m 72 607 l 72 760 q 84 807 72 785 q 116 845 96 829 q 162 871 136 861 q 218 880 189 880 l 248 880 q 328 928 328 878 q 312 959 328 945 q 275 972 297 972 l 72 972 l 72 1093 l 292 1093 q 349 1084 322 1093 q 395 1058 375 1074 q 426 1020 414 1042 q 437 972 437 998 l 437 942 q 426 895 437 917 q 395 856 414 873 q 349 830 375 840 q 292 821 322 821 l 201 821 q 180 817 191 821 q 163 807 170 813 q 151 793 155 801 q 146 775 146 785 l 146 729 l 437 729 l 437 607 l 72 607 z "},"³":{"ha":510,"x_min":72,"x_max":437,"o":"m 437 729 q 426 682 437 704 q 395 643 414 660 q 349 617 375 627 q 292 607 322 607 l 72 607 l 72 729 l 275 729 q 312 743 297 729 q 328 775 328 758 q 312 807 328 794 q 275 821 297 821 l 146 821 l 146 880 l 275 880 q 312 895 297 880 q 328 928 328 909 q 312 959 328 945 q 275 972 297 972 l 72 972 l 72 1093 l 292 1093 q 351 1083 324 1093 q 397 1057 378 1074 q 427 1016 416 1040 q 437 966 437 993 q 430 928 437 947 q 409 895 422 910 q 377 868 395 880 q 336 850 358 856 q 437 729 437 823 z "},"´":{"ha":350,"x_min":72,"x_max":277,"o":"m 189 802 l 72 972 l 189 972 l 277 802 l 189 802 z "},"µ":{"ha":875,"x_min":72,"x_max":802,"o":"m 364 0 q 315 4 338 0 q 271 20 292 9 q 218 82 220 42 l 218 -243 l 72 -243 l 72 850 l 218 850 l 218 364 q 230 317 218 339 q 261 278 241 295 q 308 252 281 262 q 364 243 334 243 l 656 243 l 656 850 l 802 850 l 802 0 l 364 0 z "},"μ":{"ha":875,"x_min":72,"x_max":802,"o":"m 364 0 q 315 4 338 0 q 271 20 292 9 q 218 82 220 42 l 218 -243 l 72 -243 l 72 850 l 218 850 l 218 364 q 230 317 218 339 q 261 278 241 295 q 308 252 281 262 q 364 243 334 243 l 656 243 l 656 850 l 802 850 l 802 0 l 364 0 z "},"¶":{"ha":1021,"x_min":72,"x_max":947,"o":"m 802 850 l 802 -243 l 656 -243 l 656 850 l 510 850 l 510 -243 l 364 -243 l 364 425 q 254 444 304 425 q 160 497 203 462 q 72 668 72 569 l 72 729 q 160 900 72 828 q 254 954 203 936 q 364 972 304 972 l 947 972 l 947 850 l 802 850 z "},"·":{"ha":350,"x_min":72,"x_max":277,"o":"m 72 340 l 72 510 l 277 510 l 277 340 l 72 340 z "},"¸":{"ha":379,"x_min":72,"x_max":306,"o":"m 306 -146 q 297 -184 306 -166 q 272 -215 288 -201 q 235 -235 256 -228 q 189 -243 214 -243 l 72 -243 l 87 -207 l 189 -207 q 217 -202 203 -207 q 240 -189 230 -197 q 256 -169 250 -180 q 262 -146 262 -158 q 256 -122 262 -134 q 240 -103 250 -111 q 217 -90 230 -94 q 189 -85 203 -85 l 117 -85 l 146 24 l 233 24 l 212 -52 q 250 -64 233 -55 q 279 -86 267 -73 q 299 -114 292 -98 q 306 -146 306 -130 z "},"¹":{"ha":292,"x_min":72,"x_max":218,"o":"m 72 607 l 72 729 l 110 729 l 110 972 l 72 972 l 72 1093 l 182 1093 l 182 729 l 218 729 l 218 607 l 72 607 z "},"º":{"ha":693,"x_min":72,"x_max":619,"o":"m 510 699 q 502 734 510 718 q 478 763 493 751 q 444 783 463 776 q 401 790 424 790 l 292 790 q 249 783 269 790 q 214 763 229 776 q 191 734 199 751 q 182 699 182 718 l 182 607 q 191 572 182 589 q 214 544 199 556 q 249 524 229 531 q 292 517 269 517 l 401 517 q 445 524 425 517 q 479 543 465 530 q 502 571 494 555 q 510 607 510 587 l 510 699 m 619 517 q 603 446 619 478 q 555 386 587 414 q 401 335 492 335 l 292 335 q 208 348 247 335 q 138 387 169 361 q 72 517 72 441 l 72 790 q 138 918 72 866 q 208 959 169 945 q 292 972 247 972 l 401 972 q 555 918 491 972 q 619 790 619 866 l 619 517 z "},"»":{"ha":1014,"x_min":72,"x_max":940,"o":"m 138 0 l 72 82 l 379 248 l 72 412 l 138 493 l 503 296 l 503 199 l 138 0 m 575 0 l 510 82 l 817 248 l 510 412 l 575 493 l 940 296 l 940 199 l 575 0 z "},"¼":{"ha":729,"x_min":72,"x_max":656,"o":"m 452 0 l 452 68 l 218 68 l 218 292 l 277 292 l 277 165 l 452 165 l 452 389 l 510 389 l 510 0 l 452 0 m 72 450 l 72 522 l 656 522 l 656 450 l 72 450 m 306 583 l 306 681 l 335 681 l 335 875 l 306 875 l 306 972 l 393 972 l 393 681 l 422 681 l 422 583 l 306 583 z "},"½":{"ha":729,"x_min":72,"x_max":656,"o":"m 218 0 l 218 121 q 228 159 218 141 q 253 190 237 176 q 290 211 269 203 q 335 218 311 218 l 379 218 q 422 256 422 218 q 379 292 422 292 l 218 292 l 218 389 l 393 389 q 439 381 418 389 q 476 360 460 373 q 501 329 492 347 q 510 292 510 311 l 510 267 q 501 229 510 247 q 476 198 492 212 q 439 177 460 185 q 393 170 418 170 l 321 170 q 277 134 277 170 l 277 97 l 510 97 l 510 0 l 218 0 m 72 450 l 72 522 l 656 522 l 656 450 l 72 450 m 306 583 l 306 681 l 335 681 l 335 875 l 306 875 l 306 972 l 393 972 l 393 681 l 422 681 l 422 583 l 306 583 z "},"¾":{"ha":729,"x_min":72,"x_max":656,"o":"m 452 0 l 452 68 l 218 68 l 218 292 l 277 292 l 277 165 l 452 165 l 452 389 l 510 389 l 510 0 l 452 0 m 72 450 l 72 522 l 656 522 l 656 450 l 72 450 m 510 681 q 501 643 510 661 q 476 611 492 625 q 439 591 460 598 q 393 583 418 583 l 218 583 l 218 681 l 379 681 q 422 717 422 681 q 379 753 422 753 l 277 753 l 277 802 l 379 802 q 422 839 422 802 q 379 875 422 875 l 218 875 l 218 972 l 393 972 q 439 965 418 972 q 476 944 460 957 q 501 912 492 930 q 510 875 510 895 l 510 869 q 431 778 510 798 q 510 681 510 754 z "},"¿":{"ha":787,"x_min":72,"x_max":714,"o":"m 364 -122 q 254 -104 304 -122 q 160 -50 203 -85 q 72 121 72 22 q 94 215 72 172 q 160 293 116 257 q 364 364 244 364 l 481 364 l 496 558 l 583 558 l 611 243 l 364 243 q 336 238 349 243 q 313 225 323 233 q 297 205 303 216 q 292 182 292 194 q 297 159 292 170 q 313 139 303 148 q 336 126 323 131 q 364 121 349 121 l 714 121 l 714 -122 l 364 -122 m 437 681 l 437 850 l 642 850 l 642 681 l 437 681 z "},"À":{"ha":875,"x_min":72,"x_max":802,"o":"m 656 607 q 645 655 656 633 q 614 694 633 677 q 568 720 594 710 q 510 729 541 729 l 364 729 q 308 720 334 729 q 261 693 281 710 q 230 654 241 677 q 218 607 218 632 l 218 364 l 656 364 l 656 607 m 656 0 l 656 243 l 218 243 l 218 0 l 72 0 l 72 729 q 160 900 72 828 q 254 954 203 936 q 364 972 304 972 l 510 972 q 717 901 633 972 q 802 729 802 831 l 802 0 l 656 0 m 393 1044 l 277 1215 l 393 1215 l 481 1044 l 393 1044 z "},"Á":{"ha":875,"x_min":72,"x_max":802,"o":"m 656 607 q 645 655 656 633 q 614 694 633 677 q 568 720 594 710 q 510 729 541 729 l 364 729 q 308 720 334 729 q 261 693 281 710 q 230 654 241 677 q 218 607 218 632 l 218 364 l 656 364 l 656 607 m 656 0 l 656 243 l 218 243 l 218 0 l 72 0 l 72 729 q 160 900 72 828 q 254 954 203 936 q 364 972 304 972 l 510 972 q 717 901 633 972 q 802 729 802 831 l 802 0 l 656 0 m 481 1044 l 393 1044 l 481 1215 l 597 1215 l 481 1044 z "},"Â":{"ha":875,"x_min":72,"x_max":802,"o":"m 656 607 q 645 655 656 633 q 614 694 633 677 q 568 720 594 710 q 510 729 541 729 l 364 729 q 308 720 334 729 q 261 693 281 710 q 230 654 241 677 q 218 607 218 632 l 218 364 l 656 364 l 656 607 m 656 0 l 656 243 l 218 243 l 218 0 l 72 0 l 72 729 q 160 900 72 828 q 254 954 203 936 q 364 972 304 972 l 510 972 q 717 901 633 972 q 802 729 802 831 l 802 0 l 656 0 m 525 1044 l 437 1147 l 350 1044 l 262 1044 l 379 1215 l 496 1215 l 612 1044 l 525 1044 z "},"Ã":{"ha":875,"x_min":72,"x_max":802,"o":"m 656 607 q 645 655 656 633 q 614 694 633 677 q 568 720 594 710 q 510 729 541 729 l 364 729 q 308 720 334 729 q 261 693 281 710 q 230 654 241 677 q 218 607 218 632 l 218 364 l 656 364 l 656 607 m 656 0 l 656 243 l 218 243 l 218 0 l 72 0 l 72 729 q 160 900 72 828 q 254 954 203 936 q 364 972 304 972 l 510 972 q 717 901 633 972 q 802 729 802 831 l 802 0 l 656 0 m 656 1093 q 590 1057 625 1069 q 510 1044 554 1044 q 477 1051 495 1044 q 437 1069 459 1058 q 397 1087 416 1081 q 364 1093 378 1093 q 284 1081 321 1093 q 218 1044 248 1069 l 218 1141 q 284 1179 248 1167 q 364 1190 321 1190 q 437 1166 393 1190 q 477 1148 459 1155 q 510 1141 495 1141 q 590 1154 554 1141 q 656 1190 625 1166 l 656 1093 z "},"Ä":{"ha":875,"x_min":72,"x_max":802,"o":"m 656 607 q 645 655 656 633 q 614 694 633 677 q 568 720 594 710 q 510 729 541 729 l 364 729 q 308 720 334 729 q 261 693 281 710 q 230 654 241 677 q 218 607 218 632 l 218 364 l 656 364 l 656 607 m 656 0 l 656 243 l 218 243 l 218 0 l 72 0 l 72 729 q 160 900 72 828 q 254 954 203 936 q 364 972 304 972 l 510 972 q 717 901 633 972 q 802 729 802 831 l 802 0 l 656 0 m 218 1044 l 218 1166 l 364 1166 l 364 1044 l 218 1044 m 510 1044 l 510 1166 l 656 1166 l 656 1044 l 510 1044 z "},"Å":{"ha":875,"x_min":72,"x_max":802,"o":"m 656 607 q 645 655 656 633 q 614 694 633 677 q 568 720 594 710 q 510 729 541 729 l 364 729 q 308 720 334 729 q 261 693 281 710 q 230 654 241 677 q 218 607 218 632 l 218 364 l 656 364 l 656 607 m 554 1069 q 545 1107 554 1089 q 520 1138 536 1124 q 483 1159 504 1151 q 437 1166 461 1166 q 392 1159 414 1166 q 355 1138 371 1151 q 330 1107 339 1124 q 321 1069 321 1089 q 330 1031 321 1049 q 355 1001 339 1014 q 392 980 371 987 q 437 972 414 972 q 483 980 461 972 q 520 1001 504 987 q 545 1031 536 1014 q 554 1069 554 1049 m 656 0 l 656 243 l 218 243 l 218 0 l 72 0 l 72 729 q 89 812 72 773 q 140 885 106 851 q 313 968 207 951 q 275 1015 287 989 q 262 1069 262 1040 q 314 1173 262 1131 q 370 1204 339 1193 q 437 1215 401 1215 q 505 1204 474 1215 q 561 1173 536 1193 q 600 1126 587 1152 q 612 1069 612 1100 q 601 1014 612 1039 q 564 968 589 989 q 734 885 670 951 q 785 812 769 851 q 802 729 802 774 l 802 0 l 656 0 z "},"Æ":{"ha":1239,"x_min":72,"x_max":1166,"o":"m 656 607 q 645 655 656 633 q 614 694 633 677 q 568 720 594 710 q 510 729 541 729 l 364 729 q 308 720 334 729 q 261 693 281 710 q 230 654 241 677 q 218 607 218 632 l 218 364 l 656 364 l 656 607 m 947 0 q 742 71 826 0 q 656 243 656 142 l 218 243 l 218 0 l 72 0 l 72 729 q 160 900 72 828 q 254 954 203 936 q 364 972 304 972 l 452 972 q 563 955 512 972 q 656 904 613 938 l 656 972 l 1166 972 l 1166 729 l 802 729 l 802 547 l 1021 547 l 1021 425 l 802 425 l 802 364 q 813 316 802 338 q 844 278 824 294 q 890 252 863 262 q 947 243 917 243 l 1166 243 l 1166 0 l 947 0 z "},"Ç":{"ha":875,"x_min":72,"x_max":802,"o":"m 532 0 l 519 -52 q 557 -64 540 -55 q 586 -86 574 -73 q 606 -114 599 -98 q 612 -146 612 -130 q 603 -184 612 -166 q 578 -215 594 -201 q 541 -235 562 -228 q 496 -243 519 -243 l 379 -243 l 393 -207 l 496 -207 q 523 -202 510 -207 q 547 -189 536 -197 q 563 -169 557 -180 q 568 -146 568 -158 q 563 -122 568 -134 q 547 -103 557 -111 q 523 -90 536 -94 q 496 -85 510 -85 l 422 -85 l 446 0 l 364 0 q 160 72 244 0 q 72 243 72 144 l 72 729 q 160 900 72 828 q 254 954 203 936 q 364 972 304 972 l 802 972 l 802 729 l 364 729 q 308 720 334 729 q 261 693 281 710 q 230 654 241 677 q 218 607 218 632 l 218 364 q 230 317 218 339 q 261 278 241 295 q 308 252 281 262 q 364 243 334 243 l 802 243 l 802 0 l 532 0 z "},"È":{"ha":729,"x_min":72,"x_max":656,"o":"m 364 0 q 158 71 242 0 q 94 149 115 106 q 72 243 72 192 l 72 972 l 656 972 l 656 729 l 218 729 l 218 547 l 510 547 l 510 425 l 218 425 l 218 364 q 230 316 218 338 q 260 278 241 294 q 307 252 280 262 q 364 243 334 243 l 656 243 l 656 0 l 364 0 m 321 1044 l 204 1215 l 321 1215 l 408 1044 l 321 1044 z "},"É":{"ha":729,"x_min":72,"x_max":656,"o":"m 364 0 q 158 71 242 0 q 94 149 115 106 q 72 243 72 192 l 72 972 l 656 972 l 656 729 l 218 729 l 218 547 l 510 547 l 510 425 l 218 425 l 218 364 q 230 316 218 338 q 260 278 241 294 q 307 252 280 262 q 364 243 334 243 l 656 243 l 656 0 l 364 0 m 408 1044 l 321 1044 l 408 1215 l 525 1215 l 408 1044 z "},"Ê":{"ha":729,"x_min":72,"x_max":656,"o":"m 364 0 q 158 71 242 0 q 94 149 115 106 q 72 243 72 192 l 72 972 l 656 972 l 656 729 l 218 729 l 218 547 l 510 547 l 510 425 l 218 425 l 218 364 q 230 316 218 338 q 260 278 241 294 q 307 252 280 262 q 364 243 334 243 l 656 243 l 656 0 l 364 0 m 452 1044 l 364 1147 l 277 1044 l 189 1044 l 306 1215 l 422 1215 l 539 1044 l 452 1044 z "},"Ë":{"ha":729,"x_min":72,"x_max":656,"o":"m 364 0 q 158 71 242 0 q 94 149 115 106 q 72 243 72 192 l 72 972 l 656 972 l 656 729 l 218 729 l 218 547 l 510 547 l 510 425 l 218 425 l 218 364 q 230 316 218 338 q 260 278 241 294 q 307 252 280 262 q 364 243 334 243 l 656 243 l 656 0 l 364 0 m 146 1044 l 146 1166 l 292 1166 l 292 1044 l 146 1044 m 437 1044 l 437 1166 l 583 1166 l 583 1044 l 437 1044 z "},"Ì":{"ha":437,"x_min":58,"x_max":364,"o":"m 72 0 l 72 243 l 146 243 l 146 729 l 72 729 l 72 972 l 364 972 l 364 729 l 292 729 l 292 243 l 364 243 l 364 0 l 72 0 m 175 1044 l 58 1215 l 175 1215 l 262 1044 l 175 1044 z "},"Í":{"ha":437,"x_min":72,"x_max":379,"o":"m 72 0 l 72 243 l 146 243 l 146 729 l 72 729 l 72 972 l 364 972 l 364 729 l 292 729 l 292 243 l 364 243 l 364 0 l 72 0 m 262 1044 l 175 1044 l 262 1215 l 379 1215 l 262 1044 z "},"Î":{"ha":437,"x_min":43,"x_max":393,"o":"m 72 0 l 72 243 l 146 243 l 146 729 l 72 729 l 72 972 l 364 972 l 364 729 l 292 729 l 292 243 l 364 243 l 364 0 l 72 0 m 306 1044 l 218 1147 l 131 1044 l 43 1044 l 160 1215 l 277 1215 l 393 1044 l 306 1044 z "},"Ï":{"ha":437,"x_min":0,"x_max":437,"o":"m 72 0 l 72 243 l 146 243 l 146 729 l 72 729 l 72 972 l 364 972 l 364 729 l 292 729 l 292 243 l 364 243 l 364 0 l 72 0 m 0 1044 l 0 1166 l 146 1166 l 146 1044 l 0 1044 m 292 1044 l 292 1166 l 437 1166 l 437 1044 l 292 1044 z "},"Ð":{"ha":985,"x_min":36,"x_max":911,"o":"m 765 607 q 753 654 765 632 q 722 693 742 677 q 676 720 703 710 q 619 729 650 729 l 328 729 l 328 547 l 619 547 l 619 425 l 328 425 l 328 243 l 619 243 q 677 252 650 243 q 723 278 704 262 q 754 316 743 294 q 765 364 765 338 l 765 607 m 911 243 q 890 149 911 192 q 827 71 869 106 q 619 0 743 0 l 182 0 l 182 425 l 36 425 l 36 547 l 182 547 l 182 972 l 619 972 q 731 954 680 972 q 825 900 783 936 q 911 729 911 828 l 911 243 z "},"Ñ":{"ha":875,"x_min":72,"x_max":802,"o":"m 656 0 l 656 607 q 645 655 656 633 q 614 694 633 677 q 568 720 594 710 q 510 729 541 729 l 364 729 q 308 720 334 729 q 261 693 281 710 q 230 654 241 677 q 218 607 218 632 l 218 0 l 72 0 l 72 729 q 94 822 72 780 q 158 900 115 864 q 252 954 200 936 q 364 972 304 972 l 510 972 q 717 901 633 972 q 802 729 802 831 l 802 0 l 656 0 m 656 1093 q 590 1057 625 1069 q 510 1044 554 1044 q 477 1051 495 1044 q 437 1069 459 1058 q 397 1087 416 1081 q 364 1093 378 1093 q 284 1081 321 1093 q 218 1044 248 1069 l 218 1141 q 284 1179 248 1167 q 364 1190 321 1190 q 437 1166 393 1190 q 477 1148 459 1155 q 510 1141 495 1141 q 590 1154 554 1141 q 656 1190 625 1166 l 656 1093 z "},"Ò":{"ha":875,"x_min":72,"x_max":802,"o":"m 656 607 q 644 654 656 632 q 613 693 633 677 q 566 720 593 710 q 510 729 540 729 l 364 729 q 308 720 334 729 q 261 693 281 710 q 230 654 241 677 q 218 607 218 632 l 218 364 q 230 317 218 339 q 261 278 241 295 q 308 252 281 262 q 364 243 334 243 l 510 243 q 568 252 541 243 q 614 278 594 262 q 645 316 633 294 q 656 364 656 338 l 656 607 m 802 243 q 717 71 802 141 q 510 0 633 0 l 364 0 q 252 18 304 0 q 158 71 200 35 q 94 150 115 106 q 72 243 72 193 l 72 729 q 94 822 72 780 q 158 900 115 864 q 252 954 200 936 q 364 972 304 972 l 510 972 q 715 900 629 972 q 802 729 802 828 l 802 243 m 393 1044 l 277 1215 l 393 1215 l 481 1044 l 393 1044 z "},"Ó":{"ha":875,"x_min":72,"x_max":802,"o":"m 656 607 q 644 654 656 632 q 613 693 633 677 q 566 720 593 710 q 510 729 540 729 l 364 729 q 308 720 334 729 q 261 693 281 710 q 230 654 241 677 q 218 607 218 632 l 218 364 q 230 317 218 339 q 261 278 241 295 q 308 252 281 262 q 364 243 334 243 l 510 243 q 568 252 541 243 q 614 278 594 262 q 645 316 633 294 q 656 364 656 338 l 656 607 m 802 243 q 717 71 802 141 q 510 0 633 0 l 364 0 q 252 18 304 0 q 158 71 200 35 q 94 150 115 106 q 72 243 72 193 l 72 729 q 94 822 72 780 q 158 900 115 864 q 252 954 200 936 q 364 972 304 972 l 510 972 q 715 900 629 972 q 802 729 802 828 l 802 243 m 481 1044 l 393 1044 l 481 1215 l 597 1215 l 481 1044 z "},"Ô":{"ha":875,"x_min":72,"x_max":802,"o":"m 656 607 q 644 654 656 632 q 613 693 633 677 q 566 720 593 710 q 510 729 540 729 l 364 729 q 308 720 334 729 q 261 693 281 710 q 230 654 241 677 q 218 607 218 632 l 218 364 q 230 317 218 339 q 261 278 241 295 q 308 252 281 262 q 364 243 334 243 l 510 243 q 568 252 541 243 q 614 278 594 262 q 645 316 633 294 q 656 364 656 338 l 656 607 m 802 243 q 717 71 802 141 q 510 0 633 0 l 364 0 q 252 18 304 0 q 158 71 200 35 q 94 150 115 106 q 72 243 72 193 l 72 729 q 94 822 72 780 q 158 900 115 864 q 252 954 200 936 q 364 972 304 972 l 510 972 q 715 900 629 972 q 802 729 802 828 l 802 243 m 525 1044 l 437 1147 l 350 1044 l 262 1044 l 379 1215 l 496 1215 l 612 1044 l 525 1044 z "},"Õ":{"ha":875,"x_min":72,"x_max":802,"o":"m 656 607 q 644 654 656 632 q 613 693 633 677 q 566 720 593 710 q 510 729 540 729 l 364 729 q 308 720 334 729 q 261 693 281 710 q 230 654 241 677 q 218 607 218 632 l 218 364 q 230 317 218 339 q 261 278 241 295 q 308 252 281 262 q 364 243 334 243 l 510 243 q 568 252 541 243 q 614 278 594 262 q 645 316 633 294 q 656 364 656 338 l 656 607 m 802 243 q 717 71 802 141 q 510 0 633 0 l 364 0 q 252 18 304 0 q 158 71 200 35 q 94 150 115 106 q 72 243 72 193 l 72 729 q 94 822 72 780 q 158 900 115 864 q 252 954 200 936 q 364 972 304 972 l 510 972 q 715 900 629 972 q 802 729 802 828 l 802 243 m 656 1093 q 590 1057 625 1069 q 510 1044 554 1044 q 477 1051 495 1044 q 437 1069 459 1058 q 397 1087 416 1081 q 364 1093 378 1093 q 284 1081 321 1093 q 218 1044 248 1069 l 218 1141 q 284 1179 248 1167 q 364 1190 321 1190 q 437 1166 393 1190 q 477 1148 459 1155 q 510 1141 495 1141 q 590 1154 554 1141 q 656 1190 625 1166 l 656 1093 z "},"Ö":{"ha":875,"x_min":72,"x_max":802,"o":"m 656 607 q 644 654 656 632 q 613 693 633 677 q 566 720 593 710 q 510 729 540 729 l 364 729 q 308 720 334 729 q 261 693 281 710 q 230 654 241 677 q 218 607 218 632 l 218 364 q 230 317 218 339 q 261 278 241 295 q 308 252 281 262 q 364 243 334 243 l 510 243 q 568 252 541 243 q 614 278 594 262 q 645 316 633 294 q 656 364 656 338 l 656 607 m 802 243 q 717 71 802 141 q 510 0 633 0 l 364 0 q 252 18 304 0 q 158 71 200 35 q 94 150 115 106 q 72 243 72 193 l 72 729 q 94 822 72 780 q 158 900 115 864 q 252 954 200 936 q 364 972 304 972 l 510 972 q 715 900 629 972 q 802 729 802 828 l 802 243 m 218 1044 l 218 1166 l 364 1166 l 364 1044 l 218 1044 m 510 1044 l 510 1166 l 656 1166 l 656 1044 l 510 1044 z "},"×":{"ha":684,"x_min":72,"x_max":610,"o":"m 526 201 l 342 355 l 155 201 l 72 271 l 257 425 l 72 579 l 155 648 l 342 494 l 526 648 l 610 579 l 424 425 l 610 271 l 526 201 z "},"Ø":{"ha":875,"x_min":0,"x_max":875,"o":"m 656 607 q 651 636 656 623 q 639 665 647 650 l 286 262 q 325 248 306 252 q 364 243 343 243 l 510 243 q 568 252 541 243 q 614 278 594 262 q 645 316 633 294 q 656 364 656 338 l 656 607 m 587 710 q 550 725 568 720 q 510 729 532 729 l 364 729 q 308 720 334 729 q 261 693 281 710 q 230 654 241 677 q 218 607 218 632 l 218 364 q 223 335 218 349 q 236 307 228 321 l 587 710 m 779 825 q 802 729 802 779 l 802 243 q 717 71 802 141 q 510 0 633 0 l 364 0 q 138 92 227 0 l 58 0 l 0 36 l 96 147 q 78 194 84 170 q 72 243 72 217 l 72 729 q 94 822 72 780 q 158 900 115 864 q 252 954 200 936 q 364 972 304 972 l 510 972 q 737 880 648 972 l 817 972 l 875 936 l 779 825 z "},"Ù":{"ha":875,"x_min":72,"x_max":802,"o":"m 802 243 q 717 71 802 141 q 510 0 633 0 l 364 0 q 252 18 304 0 q 158 71 200 35 q 94 150 115 106 q 72 243 72 193 l 72 972 l 218 972 l 218 364 q 230 317 218 339 q 261 278 241 295 q 308 252 281 262 q 364 243 334 243 l 510 243 q 568 252 541 243 q 614 278 594 262 q 645 316 633 294 q 656 364 656 338 l 656 972 l 802 972 l 802 243 m 393 1044 l 277 1215 l 393 1215 l 481 1044 l 393 1044 z "},"Ú":{"ha":875,"x_min":72,"x_max":802,"o":"m 802 243 q 717 71 802 141 q 510 0 633 0 l 364 0 q 252 18 304 0 q 158 71 200 35 q 94 150 115 106 q 72 243 72 193 l 72 972 l 218 972 l 218 364 q 230 317 218 339 q 261 278 241 295 q 308 252 281 262 q 364 243 334 243 l 510 243 q 568 252 541 243 q 614 278 594 262 q 645 316 633 294 q 656 364 656 338 l 656 972 l 802 972 l 802 243 m 481 1044 l 393 1044 l 481 1215 l 597 1215 l 481 1044 z "},"Û":{"ha":875,"x_min":72,"x_max":802,"o":"m 802 243 q 717 71 802 141 q 510 0 633 0 l 364 0 q 252 18 304 0 q 158 71 200 35 q 94 150 115 106 q 72 243 72 193 l 72 972 l 218 972 l 218 364 q 230 317 218 339 q 261 278 241 295 q 308 252 281 262 q 364 243 334 243 l 510 243 q 568 252 541 243 q 614 278 594 262 q 645 316 633 294 q 656 364 656 338 l 656 972 l 802 972 l 802 243 m 525 1044 l 437 1147 l 350 1044 l 262 1044 l 379 1215 l 496 1215 l 612 1044 l 525 1044 z "},"Ü":{"ha":875,"x_min":72,"x_max":802,"o":"m 802 243 q 717 71 802 141 q 510 0 633 0 l 364 0 q 252 18 304 0 q 158 71 200 35 q 94 150 115 106 q 72 243 72 193 l 72 972 l 218 972 l 218 364 q 230 317 218 339 q 261 278 241 295 q 308 252 281 262 q 364 243 334 243 l 510 243 q 568 252 541 243 q 614 278 594 262 q 645 316 633 294 q 656 364 656 338 l 656 972 l 802 972 l 802 243 m 218 1044 l 218 1166 l 364 1166 l 364 1044 l 218 1044 m 510 1044 l 510 1166 l 656 1166 l 656 1044 l 510 1044 z "},"Ý":{"ha":875,"x_min":72,"x_max":802,"o":"m 802 534 q 717 363 802 433 q 510 292 633 292 l 510 0 l 364 0 l 364 292 q 160 363 244 292 q 72 534 72 433 l 72 972 l 218 972 l 218 656 q 230 609 218 631 q 261 570 241 587 q 308 544 281 553 q 364 534 334 534 l 510 534 q 568 544 541 534 q 614 570 594 553 q 645 608 633 586 q 656 656 656 630 l 656 972 l 802 972 l 802 534 m 481 1044 l 393 1044 l 481 1215 l 597 1215 l 481 1044 z "},"Þ":{"ha":875,"x_min":72,"x_max":802,"o":"m 583 425 q 574 460 583 444 q 551 489 566 477 q 516 509 536 502 q 473 517 496 517 l 218 517 l 218 335 l 473 335 q 516 342 496 335 q 551 361 536 349 q 574 390 566 374 q 583 425 583 406 m 802 456 q 715 285 802 355 q 622 231 673 249 q 510 212 570 212 l 218 212 l 218 0 l 72 0 l 72 972 l 218 972 l 218 760 l 510 760 q 622 741 570 760 q 715 688 673 723 q 802 517 802 616 l 802 456 z "},"ß":{"ha":875,"x_min":72,"x_max":802,"o":"m 802 243 q 715 72 802 144 q 510 0 631 0 l 364 0 l 364 243 l 473 243 q 516 250 496 243 q 551 270 536 258 q 574 299 566 283 q 583 335 583 316 q 574 370 583 353 q 551 398 566 386 q 516 418 536 410 q 473 425 496 425 l 364 425 l 364 547 l 473 547 q 516 554 496 547 q 551 574 536 562 q 574 602 566 586 q 583 637 583 618 q 574 673 583 656 q 551 702 566 690 q 516 722 536 715 q 473 729 496 729 l 328 729 q 285 722 305 729 q 251 702 265 715 q 227 673 236 690 q 218 637 218 656 l 218 -122 l 72 -122 l 72 729 q 94 823 72 781 q 158 901 115 866 q 364 972 241 972 l 510 972 q 715 900 629 972 q 802 729 802 828 l 802 717 q 745 575 802 638 q 682 520 717 543 q 600 486 646 498 q 685 450 648 473 q 749 394 723 426 q 788 323 774 362 q 802 243 802 285 z "},"à":{"ha":875,"x_min":72,"x_max":802,"o":"m 656 486 q 645 534 656 512 q 614 572 633 556 q 568 598 594 589 q 510 607 541 607 l 364 607 q 308 597 334 607 q 261 572 281 588 q 230 533 241 555 q 218 486 218 511 l 218 364 q 230 317 218 339 q 261 278 241 295 q 308 252 281 262 q 364 243 334 243 l 510 243 q 566 252 540 243 q 613 278 593 262 q 644 317 633 295 q 656 364 656 339 l 656 486 m 656 0 l 656 82 q 642 47 656 62 q 604 20 628 31 q 559 4 583 9 q 510 0 536 0 l 364 0 q 160 72 244 0 q 72 243 72 144 l 72 607 q 160 779 72 707 q 364 850 243 850 l 510 850 q 623 833 572 850 q 717 781 675 817 q 802 607 802 710 l 802 0 l 656 0 m 393 924 l 277 1093 l 393 1093 l 481 924 l 393 924 z "},"á":{"ha":875,"x_min":72,"x_max":802,"o":"m 656 486 q 645 534 656 512 q 614 572 633 556 q 568 598 594 589 q 510 607 541 607 l 364 607 q 308 597 334 607 q 261 572 281 588 q 230 533 241 555 q 218 486 218 511 l 218 364 q 230 317 218 339 q 261 278 241 295 q 308 252 281 262 q 364 243 334 243 l 510 243 q 566 252 540 243 q 613 278 593 262 q 644 317 633 295 q 656 364 656 339 l 656 486 m 656 0 l 656 82 q 642 47 656 62 q 604 20 628 31 q 559 4 583 9 q 510 0 536 0 l 364 0 q 160 72 244 0 q 72 243 72 144 l 72 607 q 160 779 72 707 q 364 850 243 850 l 510 850 q 623 833 572 850 q 717 781 675 817 q 802 607 802 710 l 802 0 l 656 0 m 481 924 l 393 924 l 481 1093 l 597 1093 l 481 924 z "},"â":{"ha":875,"x_min":72,"x_max":802,"o":"m 656 486 q 645 534 656 512 q 614 572 633 556 q 568 598 594 589 q 510 607 541 607 l 364 607 q 308 597 334 607 q 261 572 281 588 q 230 533 241 555 q 218 486 218 511 l 218 364 q 230 317 218 339 q 261 278 241 295 q 308 252 281 262 q 364 243 334 243 l 510 243 q 566 252 540 243 q 613 278 593 262 q 644 317 633 295 q 656 364 656 339 l 656 486 m 656 0 l 656 82 q 642 47 656 62 q 604 20 628 31 q 559 4 583 9 q 510 0 536 0 l 364 0 q 160 72 244 0 q 72 243 72 144 l 72 607 q 160 779 72 707 q 364 850 243 850 l 510 850 q 623 833 572 850 q 717 781 675 817 q 802 607 802 710 l 802 0 l 656 0 m 525 924 l 437 1025 l 350 924 l 262 924 l 379 1093 l 496 1093 l 612 924 l 525 924 z "},"ã":{"ha":875,"x_min":72,"x_max":802,"o":"m 656 486 q 645 534 656 512 q 614 572 633 556 q 568 598 594 589 q 510 607 541 607 l 364 607 q 308 597 334 607 q 261 572 281 588 q 230 533 241 555 q 218 486 218 511 l 218 364 q 230 317 218 339 q 261 278 241 295 q 308 252 281 262 q 364 243 334 243 l 510 243 q 566 252 540 243 q 613 278 593 262 q 644 317 633 295 q 656 364 656 339 l 656 486 m 656 0 l 656 82 q 642 47 656 62 q 604 20 628 31 q 559 4 583 9 q 510 0 536 0 l 364 0 q 160 72 244 0 q 72 243 72 144 l 72 607 q 160 779 72 707 q 364 850 243 850 l 510 850 q 623 833 572 850 q 717 781 675 817 q 802 607 802 710 l 802 0 l 656 0 m 656 972 q 590 935 625 947 q 510 924 554 924 q 437 947 481 924 q 364 972 393 972 q 284 961 321 972 q 218 924 248 949 l 218 1021 q 284 1058 248 1046 q 364 1069 321 1069 q 437 1044 394 1069 q 477 1027 459 1033 q 510 1021 495 1021 q 656 1069 596 1021 l 656 972 z "},"ä":{"ha":875,"x_min":72,"x_max":802,"o":"m 656 486 q 645 534 656 512 q 614 572 633 556 q 568 598 594 589 q 510 607 541 607 l 364 607 q 308 597 334 607 q 261 572 281 588 q 230 533 241 555 q 218 486 218 511 l 218 364 q 230 317 218 339 q 261 278 241 295 q 308 252 281 262 q 364 243 334 243 l 510 243 q 566 252 540 243 q 613 278 593 262 q 644 317 633 295 q 656 364 656 339 l 656 486 m 656 0 l 656 82 q 642 47 656 62 q 604 20 628 31 q 559 4 583 9 q 510 0 536 0 l 364 0 q 160 72 244 0 q 72 243 72 144 l 72 607 q 160 779 72 707 q 364 850 243 850 l 510 850 q 623 833 572 850 q 717 781 675 817 q 802 607 802 710 l 802 0 l 656 0 m 218 924 l 218 1044 l 364 1044 l 364 924 l 218 924 m 510 924 l 510 1044 l 656 1044 l 656 924 l 510 924 z "},"å":{"ha":875,"x_min":72,"x_max":802,"o":"m 656 486 q 645 534 656 512 q 614 572 633 556 q 568 598 594 589 q 510 607 541 607 l 364 607 q 308 597 334 607 q 261 572 281 588 q 230 533 241 555 q 218 486 218 511 l 218 364 q 230 317 218 339 q 261 278 241 295 q 308 252 281 262 q 364 243 334 243 l 510 243 q 566 252 540 243 q 613 278 593 262 q 644 317 633 295 q 656 364 656 339 l 656 486 m 554 1069 q 545 1107 554 1089 q 520 1138 536 1124 q 483 1159 504 1151 q 437 1166 461 1166 q 392 1159 414 1166 q 355 1138 371 1151 q 330 1107 339 1124 q 321 1069 321 1089 q 330 1031 321 1049 q 355 1001 339 1014 q 392 980 371 987 q 437 972 414 972 q 483 980 461 972 q 520 1001 504 987 q 545 1031 536 1014 q 554 1069 554 1049 m 656 0 l 656 82 q 642 47 656 62 q 604 20 628 31 q 559 4 583 9 q 510 0 536 0 l 364 0 q 160 72 244 0 q 72 243 72 144 l 72 607 q 160 779 72 707 q 364 850 243 850 l 510 850 q 623 833 572 850 q 717 781 675 817 q 802 607 802 710 l 802 0 l 656 0 m 612 1069 q 600 1013 612 1039 q 561 966 587 987 q 437 924 512 924 q 314 966 363 924 q 262 1069 262 1008 q 314 1173 262 1131 q 370 1204 339 1193 q 437 1215 401 1215 q 505 1204 474 1215 q 561 1173 536 1193 q 600 1126 587 1152 q 612 1069 612 1100 z "},"æ":{"ha":1312,"x_min":72,"x_max":1239,"o":"m 656 486 q 645 534 656 512 q 614 572 633 556 q 568 598 594 589 q 510 607 541 607 l 364 607 q 308 597 334 607 q 261 572 281 588 q 230 533 241 555 q 218 486 218 511 l 218 364 q 230 317 218 339 q 261 278 241 295 q 308 252 281 262 q 364 243 334 243 l 510 243 q 566 252 540 243 q 613 278 593 262 q 644 317 633 295 q 656 364 656 339 l 656 486 m 1006 0 q 802 71 890 0 l 802 0 l 656 0 l 656 82 q 642 47 656 62 q 604 20 628 31 q 559 4 583 9 q 510 0 536 0 l 364 0 q 160 72 244 0 q 72 243 72 144 l 72 607 q 160 779 72 707 q 364 850 243 850 l 452 850 q 544 838 500 850 q 624 805 588 826 q 688 753 661 783 q 729 685 715 722 q 836 804 759 759 q 1006 850 913 850 l 1239 850 l 1239 607 l 947 607 q 891 597 918 607 q 845 572 865 588 q 813 533 825 555 q 802 486 802 511 l 1093 486 l 1093 364 l 802 364 q 813 317 802 339 q 845 278 825 295 q 891 252 865 262 q 947 243 918 243 l 1239 243 l 1239 0 l 1006 0 z "},"ç":{"ha":875,"x_min":72,"x_max":802,"o":"m 532 0 l 519 -52 q 557 -64 540 -55 q 586 -86 574 -73 q 606 -114 599 -98 q 612 -146 612 -130 q 603 -184 612 -166 q 578 -215 594 -201 q 541 -235 562 -228 q 496 -243 519 -243 l 379 -243 l 393 -207 l 496 -207 q 523 -202 510 -207 q 547 -189 536 -197 q 563 -169 557 -180 q 568 -146 568 -158 q 563 -122 568 -134 q 547 -103 557 -111 q 523 -90 536 -94 q 496 -85 510 -85 l 422 -85 l 446 0 l 364 0 q 160 72 244 0 q 72 243 72 144 l 72 607 q 160 779 72 707 q 364 850 243 850 l 802 850 l 802 607 l 364 607 q 308 597 334 607 q 261 572 281 588 q 230 533 241 555 q 218 486 218 511 l 218 364 q 230 317 218 339 q 261 278 241 295 q 308 252 281 262 q 364 243 334 243 l 802 243 l 802 0 l 532 0 z "},"è":{"ha":875,"x_min":72,"x_max":802,"o":"m 364 0 q 160 72 244 0 q 72 243 72 144 l 72 607 q 160 779 72 707 q 364 850 243 850 l 802 850 l 802 607 l 364 607 q 308 597 334 607 q 261 572 281 588 q 230 533 241 555 q 218 486 218 511 l 656 486 l 656 364 l 218 364 q 230 317 218 339 q 261 278 241 295 q 308 252 281 262 q 364 243 334 243 l 802 243 l 802 0 l 364 0 m 393 924 l 277 1093 l 393 1093 l 481 924 l 393 924 z "},"é":{"ha":875,"x_min":72,"x_max":802,"o":"m 364 0 q 160 72 244 0 q 72 243 72 144 l 72 607 q 160 779 72 707 q 364 850 243 850 l 802 850 l 802 607 l 364 607 q 308 597 334 607 q 261 572 281 588 q 230 533 241 555 q 218 486 218 511 l 656 486 l 656 364 l 218 364 q 230 317 218 339 q 261 278 241 295 q 308 252 281 262 q 364 243 334 243 l 802 243 l 802 0 l 364 0 m 481 924 l 393 924 l 481 1093 l 597 1093 l 481 924 z "},"ê":{"ha":875,"x_min":72,"x_max":802,"o":"m 364 0 q 160 72 244 0 q 72 243 72 144 l 72 607 q 160 779 72 707 q 364 850 243 850 l 802 850 l 802 607 l 364 607 q 308 597 334 607 q 261 572 281 588 q 230 533 241 555 q 218 486 218 511 l 656 486 l 656 364 l 218 364 q 230 317 218 339 q 261 278 241 295 q 308 252 281 262 q 364 243 334 243 l 802 243 l 802 0 l 364 0 m 525 924 l 437 1025 l 350 924 l 262 924 l 379 1093 l 496 1093 l 612 924 l 525 924 z "},"ë":{"ha":875,"x_min":72,"x_max":802,"o":"m 364 0 q 160 72 244 0 q 72 243 72 144 l 72 607 q 160 779 72 707 q 364 850 243 850 l 802 850 l 802 607 l 364 607 q 308 597 334 607 q 261 572 281 588 q 230 533 241 555 q 218 486 218 511 l 656 486 l 656 364 l 218 364 q 230 317 218 339 q 261 278 241 295 q 308 252 281 262 q 364 243 334 243 l 802 243 l 802 0 l 364 0 m 218 924 l 218 1044 l 364 1044 l 364 924 l 218 924 m 510 924 l 510 1044 l 656 1044 l 656 924 l 510 924 z "},"ì":{"ha":292,"x_min":-16,"x_max":218,"o":"m 72 0 l 72 850 l 218 850 l 218 0 l 72 0 m 102 924 l -16 1093 l 102 1093 l 189 924 l 102 924 z "},"í":{"ha":292,"x_min":72,"x_max":306,"o":"m 72 0 l 72 850 l 218 850 l 218 0 l 72 0 m 189 924 l 102 924 l 189 1093 l 306 1093 l 189 924 z "},"î":{"ha":292,"x_min":-29,"x_max":321,"o":"m 72 0 l 72 850 l 218 850 l 218 0 l 72 0 m 233 924 l 146 1025 l 58 924 l -29 924 l 87 1093 l 204 1093 l 321 924 l 233 924 z "},"ï":{"ha":292,"x_min":-74,"x_max":364,"o":"m 72 0 l 72 850 l 218 850 l 218 0 l 72 0 m -74 924 l -74 1044 l 72 1044 l 72 924 l -74 924 m 218 924 l 218 1044 l 364 1044 l 364 924 l 218 924 z "},"ð":{"ha":875,"x_min":72,"x_max":947,"o":"m 656 486 q 644 533 656 511 q 613 572 633 555 q 566 597 593 588 q 510 607 540 607 l 364 607 q 308 597 334 607 q 261 572 281 588 q 230 533 241 555 q 218 486 218 511 l 218 364 q 230 317 218 339 q 261 278 241 295 q 308 252 281 262 q 364 243 334 243 l 510 243 q 568 252 541 243 q 614 278 594 262 q 645 316 633 294 q 656 364 656 338 l 656 486 m 802 911 l 802 243 q 717 71 802 141 q 510 0 633 0 l 364 0 q 160 72 244 0 q 72 243 72 144 l 72 607 q 160 779 72 707 q 364 850 243 850 l 510 850 q 559 845 536 850 q 604 831 583 841 q 642 804 628 819 q 656 770 656 788 l 656 911 l 510 911 l 510 1034 l 947 1034 l 947 911 l 802 911 z "},"ñ":{"ha":875,"x_min":72,"x_max":802,"o":"m 656 0 l 656 486 q 645 534 656 512 q 614 572 633 556 q 568 598 594 589 q 510 607 541 607 l 364 607 q 308 597 334 607 q 261 572 281 588 q 230 533 241 555 q 218 486 218 511 l 218 0 l 72 0 l 72 607 q 94 701 72 658 q 158 779 115 743 q 252 832 200 815 q 364 850 304 850 l 510 850 q 623 833 572 850 q 717 781 675 817 q 802 607 802 710 l 802 0 l 656 0 m 656 972 q 590 935 625 947 q 510 924 554 924 q 437 947 481 924 q 364 972 393 972 q 284 961 321 972 q 218 924 248 949 l 218 1021 q 284 1058 248 1046 q 364 1069 321 1069 q 437 1044 394 1069 q 477 1027 459 1033 q 510 1021 495 1021 q 656 1069 596 1021 l 656 972 z "},"ò":{"ha":875,"x_min":72,"x_max":802,"o":"m 656 486 q 644 533 656 511 q 613 572 633 555 q 566 597 593 588 q 510 607 540 607 l 364 607 q 308 597 334 607 q 261 572 281 588 q 230 533 241 555 q 218 486 218 511 l 218 364 q 230 317 218 339 q 261 278 241 295 q 308 252 281 262 q 364 243 334 243 l 510 243 q 568 252 541 243 q 614 278 594 262 q 645 316 633 294 q 656 364 656 338 l 656 486 m 802 243 q 717 71 802 141 q 510 0 633 0 l 364 0 q 252 18 304 0 q 158 71 200 35 q 94 150 115 106 q 72 243 72 193 l 72 607 q 94 701 72 658 q 158 779 115 743 q 252 832 200 815 q 364 850 304 850 l 510 850 q 715 779 631 850 q 802 607 802 707 l 802 243 m 393 924 l 277 1093 l 393 1093 l 481 924 l 393 924 z "},"ó":{"ha":875,"x_min":72,"x_max":802,"o":"m 656 486 q 644 533 656 511 q 613 572 633 555 q 566 597 593 588 q 510 607 540 607 l 364 607 q 308 597 334 607 q 261 572 281 588 q 230 533 241 555 q 218 486 218 511 l 218 364 q 230 317 218 339 q 261 278 241 295 q 308 252 281 262 q 364 243 334 243 l 510 243 q 568 252 541 243 q 614 278 594 262 q 645 316 633 294 q 656 364 656 338 l 656 486 m 802 243 q 717 71 802 141 q 510 0 633 0 l 364 0 q 252 18 304 0 q 158 71 200 35 q 94 150 115 106 q 72 243 72 193 l 72 607 q 94 701 72 658 q 158 779 115 743 q 252 832 200 815 q 364 850 304 850 l 510 850 q 715 779 631 850 q 802 607 802 707 l 802 243 m 481 924 l 393 924 l 481 1093 l 597 1093 l 481 924 z "},"ô":{"ha":875,"x_min":72,"x_max":802,"o":"m 656 486 q 644 533 656 511 q 613 572 633 555 q 566 597 593 588 q 510 607 540 607 l 364 607 q 308 597 334 607 q 261 572 281 588 q 230 533 241 555 q 218 486 218 511 l 218 364 q 230 317 218 339 q 261 278 241 295 q 308 252 281 262 q 364 243 334 243 l 510 243 q 568 252 541 243 q 614 278 594 262 q 645 316 633 294 q 656 364 656 338 l 656 486 m 802 243 q 717 71 802 141 q 510 0 633 0 l 364 0 q 252 18 304 0 q 158 71 200 35 q 94 150 115 106 q 72 243 72 193 l 72 607 q 94 701 72 658 q 158 779 115 743 q 252 832 200 815 q 364 850 304 850 l 510 850 q 715 779 631 850 q 802 607 802 707 l 802 243 m 525 924 l 437 1025 l 350 924 l 262 924 l 379 1093 l 496 1093 l 612 924 l 525 924 z "},"õ":{"ha":875,"x_min":72,"x_max":802,"o":"m 656 486 q 644 533 656 511 q 613 572 633 555 q 566 597 593 588 q 510 607 540 607 l 364 607 q 308 597 334 607 q 261 572 281 588 q 230 533 241 555 q 218 486 218 511 l 218 364 q 230 317 218 339 q 261 278 241 295 q 308 252 281 262 q 364 243 334 243 l 510 243 q 568 252 541 243 q 614 278 594 262 q 645 316 633 294 q 656 364 656 338 l 656 486 m 802 243 q 717 71 802 141 q 510 0 633 0 l 364 0 q 252 18 304 0 q 158 71 200 35 q 94 150 115 106 q 72 243 72 193 l 72 607 q 94 701 72 658 q 158 779 115 743 q 252 832 200 815 q 364 850 304 850 l 510 850 q 715 779 631 850 q 802 607 802 707 l 802 243 m 656 972 q 590 935 625 947 q 510 924 554 924 q 437 947 481 924 q 364 972 393 972 q 284 961 321 972 q 218 924 248 949 l 218 1021 q 284 1058 248 1046 q 364 1069 321 1069 q 437 1044 394 1069 q 477 1027 459 1033 q 510 1021 495 1021 q 656 1069 596 1021 l 656 972 z "},"ö":{"ha":875,"x_min":72,"x_max":802,"o":"m 656 486 q 644 533 656 511 q 613 572 633 555 q 566 597 593 588 q 510 607 540 607 l 364 607 q 308 597 334 607 q 261 572 281 588 q 230 533 241 555 q 218 486 218 511 l 218 364 q 230 317 218 339 q 261 278 241 295 q 308 252 281 262 q 364 243 334 243 l 510 243 q 568 252 541 243 q 614 278 594 262 q 645 316 633 294 q 656 364 656 338 l 656 486 m 802 243 q 717 71 802 141 q 510 0 633 0 l 364 0 q 252 18 304 0 q 158 71 200 35 q 94 150 115 106 q 72 243 72 193 l 72 607 q 94 701 72 658 q 158 779 115 743 q 252 832 200 815 q 364 850 304 850 l 510 850 q 715 779 631 850 q 802 607 802 707 l 802 243 m 218 924 l 218 1044 l 364 1044 l 364 924 l 218 924 m 510 924 l 510 1044 l 656 1044 l 656 924 l 510 924 z "},"÷":{"ha":729,"x_min":72,"x_max":656,"o":"m 262 85 l 262 256 l 467 256 l 467 85 l 262 85 m 72 376 l 72 473 l 656 473 l 656 376 l 72 376 m 262 596 l 262 765 l 467 765 l 467 596 l 262 596 z "},"ø":{"ha":875,"x_min":0,"x_max":875,"o":"m 571 597 q 542 605 557 603 q 510 607 526 607 l 364 607 q 308 597 334 607 q 261 572 281 588 q 230 533 241 555 q 218 486 218 511 l 218 364 q 254 286 218 320 l 571 597 m 656 486 q 621 566 656 530 l 304 254 q 333 246 318 249 q 364 243 349 243 l 510 243 q 568 252 541 243 q 614 278 594 262 q 645 316 633 294 q 656 364 656 338 l 656 486 m 772 714 q 802 607 802 663 l 802 243 q 717 71 802 141 q 510 0 633 0 l 364 0 q 138 92 225 0 l 43 0 l 0 36 l 102 138 q 72 243 72 186 l 72 607 q 94 701 72 658 q 158 779 115 743 q 252 832 200 815 q 364 850 304 850 l 510 850 q 637 828 581 850 q 737 760 693 806 l 831 850 l 875 814 l 772 714 z "},"ù":{"ha":875,"x_min":72,"x_max":802,"o":"m 802 243 q 717 71 802 141 q 510 0 633 0 l 364 0 q 252 18 304 0 q 158 71 200 35 q 94 150 115 106 q 72 243 72 193 l 72 850 l 218 850 l 218 364 q 230 317 218 339 q 261 278 241 295 q 308 252 281 262 q 364 243 334 243 l 510 243 q 568 252 541 243 q 614 278 594 262 q 645 316 633 294 q 656 364 656 338 l 656 850 l 802 850 l 802 243 m 393 924 l 277 1093 l 393 1093 l 481 924 l 393 924 z "},"ú":{"ha":875,"x_min":72,"x_max":802,"o":"m 802 243 q 717 71 802 141 q 510 0 633 0 l 364 0 q 252 18 304 0 q 158 71 200 35 q 94 150 115 106 q 72 243 72 193 l 72 850 l 218 850 l 218 364 q 230 317 218 339 q 261 278 241 295 q 308 252 281 262 q 364 243 334 243 l 510 243 q 568 252 541 243 q 614 278 594 262 q 645 316 633 294 q 656 364 656 338 l 656 850 l 802 850 l 802 243 m 481 924 l 393 924 l 481 1093 l 597 1093 l 481 924 z "},"û":{"ha":875,"x_min":72,"x_max":802,"o":"m 802 243 q 717 71 802 141 q 510 0 633 0 l 364 0 q 252 18 304 0 q 158 71 200 35 q 94 150 115 106 q 72 243 72 193 l 72 850 l 218 850 l 218 364 q 230 317 218 339 q 261 278 241 295 q 308 252 281 262 q 364 243 334 243 l 510 243 q 568 252 541 243 q 614 278 594 262 q 645 316 633 294 q 656 364 656 338 l 656 850 l 802 850 l 802 243 m 525 924 l 437 1025 l 350 924 l 262 924 l 379 1093 l 496 1093 l 612 924 l 525 924 z "},"ü":{"ha":875,"x_min":72,"x_max":802,"o":"m 802 243 q 717 71 802 141 q 510 0 633 0 l 364 0 q 252 18 304 0 q 158 71 200 35 q 94 150 115 106 q 72 243 72 193 l 72 850 l 218 850 l 218 364 q 230 317 218 339 q 261 278 241 295 q 308 252 281 262 q 364 243 334 243 l 510 243 q 568 252 541 243 q 614 278 594 262 q 645 316 633 294 q 656 364 656 338 l 656 850 l 802 850 l 802 243 m 218 924 l 218 1044 l 364 1044 l 364 924 l 218 924 m 510 924 l 510 1044 l 656 1044 l 656 924 l 510 924 z "},"ý":{"ha":875,"x_min":72,"x_max":802,"o":"m 802 -122 q 717 -294 802 -224 q 510 -366 633 -366 l 364 -366 l 364 -122 l 510 -122 q 568 -113 541 -122 q 614 -87 594 -103 q 645 -48 633 -71 q 656 0 656 -26 l 656 82 q 642 47 656 62 q 604 20 628 31 q 560 4 583 9 q 510 0 537 0 l 364 0 q 160 72 244 0 q 72 243 72 144 l 72 850 l 218 850 l 218 364 q 230 317 218 339 q 261 278 241 295 q 308 252 281 262 q 364 243 334 243 l 510 243 q 568 252 541 243 q 614 278 594 262 q 645 316 633 294 q 656 364 656 338 l 656 850 l 802 850 l 802 -122 m 481 924 l 393 924 l 481 1093 l 597 1093 l 481 924 z "},"þ":{"ha":875,"x_min":72,"x_max":802,"o":"m 656 364 q 644 412 656 389 q 613 451 633 434 q 566 477 593 467 q 510 486 540 486 l 218 486 l 218 243 l 510 243 q 566 252 540 243 q 613 278 593 262 q 644 317 633 295 q 656 364 656 339 m 802 243 q 715 72 802 144 q 510 0 631 0 l 218 0 l 218 -243 l 72 -243 l 72 972 l 218 972 l 218 729 l 510 729 q 622 711 570 729 q 715 657 673 692 q 802 486 802 585 l 802 243 z "},"ÿ":{"ha":875,"x_min":72,"x_max":802,"o":"m 802 -122 q 717 -294 802 -224 q 510 -366 633 -366 l 364 -366 l 364 -122 l 510 -122 q 568 -113 541 -122 q 614 -87 594 -103 q 645 -48 633 -71 q 656 0 656 -26 l 656 82 q 642 47 656 62 q 604 20 628 31 q 559 4 583 9 q 510 0 536 0 l 364 0 q 160 72 244 0 q 72 243 72 144 l 72 850 l 218 850 l 218 364 q 230 317 218 339 q 261 278 241 295 q 308 252 281 262 q 364 243 334 243 l 510 243 q 568 252 541 243 q 614 278 594 262 q 645 316 633 294 q 656 364 656 338 l 656 850 l 802 850 l 802 -122 m 218 924 l 218 1044 l 364 1044 l 364 924 l 218 924 m 510 924 l 510 1044 l 656 1044 l 656 924 l 510 924 z "},"¯":{"ha":656,"x_min":0,"x_max":656,"o":"m 0 850 l 0 972 l 656 972 l 656 850 l 0 850 z "},"ˉ":{"ha":656,"x_min":0,"x_max":656,"o":"m 0 850 l 0 972 l 656 972 l 656 850 l 0 850 z "},"ı":{"ha":292,"x_min":72,"x_max":218,"o":"m 72 0 l 72 850 l 218 850 l 218 0 l 72 0 z "},"ˇ":{"ha":496,"x_min":72,"x_max":422,"o":"m 306 802 l 189 802 l 72 972 l 160 972 l 248 869 l 335 972 l 422 972 l 306 802 z "},"˘":{"ha":1371,"x_min":61,"x_max":1310,"o":"m 465 293 l 465 518 l 543 518 l 543 293 l 465 293 m 812 160 l 521 160 l 547 220 l 790 220 l 694 456 l 693 456 l 693 517 l 760 517 l 760 693 l 465 693 l 465 911 l 329 911 l 329 456 l 151 456 l 151 61 l 852 61 l 812 160 m 1244 146 q 1092 236 1244 236 l 961 236 l 961 296 l 1104 296 q 1143 301 1125 296 q 1177 317 1161 307 q 1203 344 1194 330 q 1213 378 1213 359 q 1171 440 1213 420 q 1136 452 1155 449 q 1093 456 1116 456 l 757 456 l 921 60 l 1092 60 q 1150 62 1125 60 q 1190 72 1175 64 q 1244 146 1244 92 m 1310 136 q 1251 33 1310 71 q 1132 0 1204 0 l 90 0 l 90 515 l 267 515 l 267 911 l 122 911 l 122 839 l 61 839 l 72 972 l 597 972 l 597 911 l 530 911 l 530 753 l 822 753 l 822 515 l 1197 515 l 1197 633 l 1257 633 l 1257 456 l 1253 456 q 1271 423 1264 441 q 1278 382 1278 405 q 1260 314 1278 342 q 1207 269 1242 287 q 1310 136 1310 237 m 1194 793 l 1185 909 l 940 909 l 940 753 l 1071 753 l 1071 818 l 1131 818 l 1131 627 l 1071 627 l 1071 692 l 878 692 l 878 971 l 1253 971 l 1253 793 l 1194 793 z "},"˚":{"ha":496,"x_min":72,"x_max":422,"o":"m 364 827 q 355 864 364 846 q 330 895 346 882 q 293 916 315 908 q 248 924 272 924 q 202 916 223 924 q 165 895 181 908 q 140 864 149 882 q 131 827 131 846 q 140 788 131 806 q 165 757 149 770 q 202 736 181 744 q 248 729 223 729 q 293 736 272 729 q 330 757 315 744 q 355 788 346 770 q 364 827 364 806 m 422 827 q 372 724 422 766 q 248 681 321 681 q 123 724 174 681 q 85 770 98 745 q 72 827 72 796 q 85 883 72 857 q 123 929 98 908 q 180 961 149 950 q 248 972 211 972 q 315 961 284 972 q 372 929 347 950 q 422 827 422 887 z "},"−":{"ha":729,"x_min":72,"x_max":656,"o":"m 72 376 l 72 473 l 656 473 l 656 376 l 72 376 z "}," ":{"ha":656,"x_min":0,"x_max":0,"o":""}}}
